<?xml version="1.0" encoding="UTF-8"?><svg xmlns="http://www.w3.org/2000/svg" xmlns:xlink="http://www.w3.org/1999/xlink" width="375" zoomAndPan="magnify" viewBox="0 0 375 374.999991" height="374.999991" preserveAspectRatio="xMidYMid meet" version="1.0"><defs><clipPath id="clip-0"><path d="M 25 23 L 350.378906 23 L 350.378906 352 L 25 352 Z M 25 23 " clip-rule="nonzero"/></clipPath><clipPath id="clip-1"><path d="M 76 70 L 301 70 L 301 305.839844 L 76 305.839844 Z M 76 70 " clip-rule="nonzero"/></clipPath><clipPath id="clip-2"><path d="M 88 80 L 294 80 L 294 305.839844 L 88 305.839844 Z M 88 80 " clip-rule="nonzero"/></clipPath><clipPath id="clip-3"><path d="M 76 70 L 301 70 L 301 305.839844 L 76 305.839844 Z M 76 70 " clip-rule="nonzero"/></clipPath><clipPath id="clip-4"><path d="M 143 234 L 248 234 L 248 299.964844 L 143 299.964844 Z M 143 234 " clip-rule="nonzero"/></clipPath><clipPath id="clip-5"><path d="M 142.894531 251.765625 L 248.378906 251.765625 L 248.378906 299.964844 L 142.894531 299.964844 Z M 142.894531 251.765625 " clip-rule="nonzero"/></clipPath><clipPath id="clip-6"><path d="M 182 230.214844 L 207 230.214844 L 207 251 L 182 251 Z M 182 230.214844 " clip-rule="nonzero"/></clipPath></defs><path fill="rgb(95.289612%, 36.468506%, 42.749023%)" d="M 289.347656 72.523438 L 289.542969 72.597656 L 289.496094 72.542969 L 289.300781 72.398438 C 289.363281 72.484375 289.300781 72.445312 289.347656 72.523438 " fill-opacity="1" fill-rule="nonzero"/><g clip-path="url(#clip-0)"><path fill="rgb(95.289612%, 36.468506%, 42.749023%)" d="M 195.171875 319.722656 C 195.355469 319.695312 195.527344 319.671875 195.710938 319.640625 C 198.546875 319.359375 201.835938 319.023438 205.121094 318.695312 C 205.660156 318.585938 206.210938 318.496094 206.753906 318.390625 C 212.996094 318.296875 219.136719 317.792969 225.148438 316.875 C 224.378906 317.203125 223.613281 317.542969 222.828125 317.910156 C 221.890625 318.304688 220.992188 318.710938 220.0625 319.101562 C 211.808594 320.011719 203.472656 320.214844 195.171875 319.722656 Z M 101.3125 276.066406 C 96.585938 272.753906 93.050781 269.394531 88.253906 264.699219 C 86.609375 263.199219 85.011719 260.15625 84.164062 258.398438 C 83.363281 256.578125 83.339844 255.886719 84.105469 256.390625 C 85.097656 257.042969 86.484375 258.433594 88.535156 261.152344 C 91.09375 264.210938 93.925781 267.015625 96.535156 269.917969 C 100.515625 273.972656 104.066406 276.296875 105.914062 277.144531 C 106.230469 277.292969 106.617188 277.507812 107.03125 277.746094 L 107.335938 278.082031 C 108.878906 279.820312 110.726562 281.25 112.402344 282.847656 L 115.105469 285.304688 C 113.816406 284.605469 112.164062 283.539062 110.40625 282.355469 C 106.554688 280.023438 103.496094 277.078125 101.3125 276.066406 Z M 80.636719 254.347656 C 79.667969 253.609375 78.347656 251.386719 77.519531 249.386719 C 77.253906 248.761719 77.273438 248.472656 77.164062 248.027344 C 77.4375 248.316406 77.65625 248.464844 77.996094 248.921875 C 78.949219 250.144531 79.757812 251.878906 80.492188 253.207031 C 81.023438 254.199219 81.09375 254.753906 80.636719 254.347656 Z M 74.386719 251.257812 C 74.050781 250.65625 73.691406 249.78125 73.414062 249.125 C 73.339844 248.933594 73.507812 249.058594 73.578125 249.035156 C 73.984375 249.476562 74.53125 250.292969 75.226562 251.753906 C 75.394531 252.105469 75.554688 252.535156 75.585938 252.707031 C 75.695312 253.261719 75.152344 252.65625 74.386719 251.257812 Z M 68.089844 241.753906 C 67.882812 241.371094 67.308594 239.851562 67.207031 239.417969 C 67.09375 238.957031 67.230469 238.804688 67.449219 239.15625 C 67.863281 239.8125 68.410156 240.933594 68.902344 241.863281 C 69.058594 242.664062 69.445312 243.761719 69.355469 243.636719 C 68.972656 243.316406 68.574219 242.632812 68.089844 241.753906 Z M 184.402344 32.773438 C 187.757812 32.46875 191.425781 32.394531 195.066406 32.1875 C 195.625 32.167969 196.796875 32.289062 197.550781 32.363281 C 197.851562 32.394531 197.800781 32.476562 197.910156 32.539062 C 197.601562 32.648438 197.542969 32.785156 196.9375 32.859375 C 192.863281 33.453125 188.203125 33.464844 182.628906 34.171875 C 182.246094 34.222656 181.449219 34.269531 181.234375 34.253906 C 180.6875 34.207031 179.960938 34.15625 180 34.050781 C 180.164062 33.648438 181.851562 33.1875 184.402344 32.773438 Z M 186.957031 31.246094 C 187.203125 31.265625 187.59375 31.289062 187.921875 31.308594 C 187.761719 31.347656 187.664062 31.410156 187.421875 31.414062 C 187.167969 31.398438 186.78125 31.371094 186.449219 31.351562 C 186.613281 31.3125 186.710938 31.253906 186.957031 31.246094 Z M 244.597656 46.980469 C 244.816406 47.03125 245.382812 47.28125 245.792969 47.4375 C 245.9375 47.554688 246.257812 47.757812 246.167969 47.769531 C 246.078125 47.78125 245.617188 47.660156 245.3125 47.53125 C 244.078125 47.003906 243.785156 46.777344 244.597656 46.980469 Z M 254.183594 51.976562 C 254.796875 52.226562 255.695312 52.710938 256.5625 53.222656 C 256.222656 53.097656 255.878906 52.960938 255.539062 52.832031 C 253.648438 52.109375 251.777344 51.398438 249.921875 50.6875 C 251.324219 51.09375 252.75 51.449219 254.183594 51.976562 Z M 263.652344 55.351562 C 265.457031 56.171875 267.066406 57.171875 268.355469 58.339844 C 268.675781 58.609375 268.972656 58.871094 269.257812 59.128906 C 268.511719 58.773438 267.761719 58.429688 267.035156 58.050781 C 265.585938 57.34375 264.148438 56.648438 262.714844 55.949219 C 262.34375 55.683594 261.988281 55.421875 261.699219 55.167969 C 260.660156 54.308594 261.488281 54.304688 263.652344 55.351562 Z M 278.382812 63.027344 C 279.800781 64.074219 281.246094 65.140625 282.734375 66.234375 C 284.308594 67.429688 285.800781 68.734375 287.058594 69.980469 C 287.617188 70.574219 288.175781 71.113281 288.707031 71.671875 L 288.125 71.238281 L 284.71875 68.660156 C 283.589844 67.789062 282.460938 66.914062 281.222656 66.203125 C 279.710938 65.273438 278.082031 64.277344 276.4375 63.269531 C 276.074219 62.863281 275.703125 62.457031 275.371094 62.058594 C 274.441406 60.945312 275.445312 61.28125 278.382812 63.027344 Z M 287.539062 68.503906 C 287.894531 68.699219 288.820312 69.371094 289.414062 69.875 C 290.664062 70.871094 291.109375 71.832031 290.4375 71.324219 C 290.09375 71.0625 289.21875 70.394531 288.578125 69.910156 C 287.402344 68.875 286.792969 68.105469 287.539062 68.503906 Z M 299.480469 77.804688 C 302.140625 80.078125 304.335938 82.96875 306.808594 85.546875 L 304.019531 83.851562 C 301.976562 81.679688 300.453125 80.195312 297.804688 77.722656 C 297.316406 77.238281 296.492188 76.230469 296.429688 76.046875 C 296.179688 75.277344 297.519531 76.039062 299.480469 77.804688 Z M 307.0625 85.824219 C 307.621094 85.542969 310.242188 87.257812 313.4375 91.554688 C 315.203125 93.855469 316.777344 96.214844 318.449219 98.832031 C 319.347656 100.175781 320.089844 101.175781 320.453125 101.527344 C 320.691406 101.722656 320.855469 101.769531 321.003906 101.785156 C 321.398438 101.828125 322.15625 102.648438 323.503906 104.933594 C 325.75 108.882812 327.910156 111.738281 329.21875 113.859375 C 329.410156 114.136719 330.0625 115.625 330.324219 116.339844 C 330.59375 117.074219 330.785156 117.875 330.757812 118.082031 C 330.679688 118.675781 330.40625 118.828125 330.335938 119.4375 C 330.210938 120.539062 329.738281 120.507812 327.503906 115.628906 C 326.824219 114.097656 326.054688 112.925781 325.320312 112.058594 C 324.867188 111.480469 324.503906 111.101562 324.140625 110.734375 C 322.824219 108.535156 321.511719 106.332031 320.097656 104.199219 L 313.902344 95.960938 L 312.335938 93.914062 L 310.589844 92.007812 L 310.054688 91.429688 C 309.914062 90.488281 308.953125 88.554688 307.039062 85.800781 Z M 334.613281 123.628906 C 335.019531 124.25 335.597656 125.234375 335.980469 126.367188 C 336.132812 126.773438 336.351562 127.871094 336.542969 128.652344 C 336.429688 129.152344 336.035156 128.53125 335.3125 126.535156 C 335.085938 125.871094 334.652344 124.597656 334.488281 124.117188 C 334.351562 123.617188 334.410156 123.316406 334.613281 123.628906 Z M 272.421875 61.871094 L 271.558594 61.34375 C 270.054688 60.511719 268.515625 59.75 266.96875 58.996094 C 266.003906 58.191406 264.957031 57.472656 263.972656 56.816406 C 266.042969 57.792969 268.089844 58.820312 270.113281 59.898438 C 270.792969 60.519531 271.5 61.148438 272.421875 61.871094 Z M 295.742188 77.3125 C 297.09375 78.359375 298.453125 79.589844 299.832031 80.988281 C 298.46875 79.765625 297.101562 78.542969 295.742188 77.3125 Z M 307.164062 92.359375 C 307.925781 93.210938 308.742188 94.175781 309.589844 95.191406 C 309.09375 94.625 308.386719 93.820312 307.832031 93.207031 C 307.414062 92.75 306.980469 92.277344 306.554688 91.808594 C 306.757812 91.996094 306.949219 92.160156 307.164062 92.359375 Z M 256.367188 56.367188 C 255.722656 56.152344 255.210938 56.011719 255.105469 56.011719 C 254.949219 56.011719 255.53125 56.269531 256.476562 56.640625 C 256.570312 56.828125 256.683594 57.03125 256.824219 57.246094 C 255.464844 56.796875 254.195312 56.382812 252.980469 55.980469 C 252.539062 55.816406 252.089844 55.671875 251.648438 55.507812 C 251.796875 55.230469 251.363281 54.691406 250.292969 53.867188 C 251.285156 54.230469 252.269531 54.59375 253.261719 54.957031 C 254.261719 55.347656 255.285156 55.6875 256.300781 56.046875 C 256.304688 56.144531 256.324219 56.25 256.367188 56.367188 Z M 269.417969 63.328125 C 269.210938 63.230469 269.269531 63.363281 269.386719 63.539062 C 268.152344 62.871094 266.914062 62.207031 265.65625 61.574219 C 266.710938 62.042969 267.75 62.507812 268.828125 62.988281 C 269.316406 63.226562 269.785156 63.476562 270.25 63.738281 C 269.972656 63.601562 269.691406 63.46875 269.417969 63.328125 Z M 260.347656 58.746094 C 260.46875 58.6875 260.628906 58.652344 260.839844 58.648438 C 261.246094 58.847656 261.648438 59.054688 262.054688 59.246094 C 263.679688 60.046875 265.65625 61.015625 266.054688 61.300781 C 266.574219 61.671875 264.3125 60.585938 262.824219 59.890625 C 261.964844 59.503906 261.152344 59.121094 260.347656 58.746094 Z M 264.175781 59.699219 C 264.78125 60.089844 263.433594 59.457031 262.097656 58.835938 C 262.46875 58.933594 262.914062 59.089844 263.402344 59.273438 C 263.75 59.453125 264.027344 59.601562 264.175781 59.699219 Z M 212.667969 44.164062 C 212.769531 44.152344 212.871094 44.136719 212.988281 44.125 C 214.5625 44.035156 216.578125 44.246094 219.378906 44.738281 C 217.152344 44.492188 214.914062 44.300781 212.667969 44.164062 Z M 155.625 55.722656 L 152.128906 56.65625 C 151.792969 56.738281 151.414062 56.777344 151.277344 56.765625 C 151.15625 56.746094 151.21875 56.625 151.390625 56.566406 C 152.117188 56.324219 153.273438 55.925781 153.613281 55.875 C 154.449219 55.75 154.992188 55.757812 155.625 55.722656 Z M 126.050781 71.734375 C 126.058594 71.730469 126.0625 71.726562 126.0625 71.726562 C 127.226562 70.851562 128.40625 70 129.640625 69.238281 C 128.761719 69.738281 127.914062 70.308594 127.070312 70.898438 C 128.839844 69.480469 130.8125 68.125 133.941406 66.226562 C 135.585938 65.261719 136.945312 64.175781 138.054688 63.566406 C 140.015625 62.320312 142.53125 61.085938 146.253906 59.625 C 150.96875 57.851562 154.15625 56.921875 155.914062 55.664062 C 157.371094 55.078125 158.8125 54.503906 160.230469 53.933594 C 161.695312 53.511719 163.144531 53.097656 164.570312 52.6875 C 167.425781 51.8125 170.199219 50.964844 172.878906 50.140625 C 174.742188 49.804688 176.546875 49.402344 178.324219 48.992188 C 178.398438 48.984375 178.476562 48.972656 178.554688 48.964844 C 179.898438 48.769531 181.214844 48.5625 181.835938 48.402344 C 181.707031 48.367188 180.992188 48.453125 180.125 48.578125 C 182.023438 48.132812 183.871094 47.714844 185.675781 47.351562 C 186.226562 47.285156 186.808594 47.210938 187.441406 47.128906 C 189.089844 46.894531 190.96875 46.582031 192.921875 46.550781 C 195.113281 46.433594 197.304688 46.3125 199.5 46.195312 C 200.421875 46.195312 200.953125 46.179688 201.1875 46.101562 C 201.699219 46.070312 202.214844 46.042969 202.726562 46.015625 C 204.355469 45.859375 205.984375 45.964844 207.609375 46.042969 C 209.234375 46.109375 210.851562 46.183594 212.460938 46.253906 L 217.746094 46.484375 C 219.507812 46.5625 221.234375 46.949219 222.980469 47.175781 C 226.449219 47.742188 229.941406 48.128906 233.3125 48.886719 C 236.890625 49.882812 240.488281 50.726562 244.03125 51.746094 C 244.246094 51.957031 244.679688 52.265625 245.390625 52.707031 C 246.285156 53.261719 245.570312 53.1875 244.472656 52.84375 C 238.371094 50.632812 231.886719 49.792969 225.503906 48.445312 C 221.109375 47.972656 216.539062 47.414062 213.398438 47.339844 C 213.21875 47.359375 213.023438 47.367188 212.839844 47.378906 C 210.125 47.214844 207.398438 47.105469 204.644531 47.105469 C 174.578125 47.105469 146.808594 56.882812 124.308594 73.398438 C 124.886719 72.847656 125.472656 72.292969 126.050781 71.734375 Z M 69.03125 167.410156 C 68.980469 167.835938 68.917969 168.261719 68.871094 168.683594 C 68.875 168.660156 68.875 168.640625 68.875 168.613281 C 68.898438 168.3125 68.960938 167.84375 69.03125 167.410156 Z M 69.398438 170.519531 C 69.308594 170.734375 69.21875 170.910156 69.128906 171.132812 C 68.953125 171.179688 68.855469 170.828125 68.835938 170.152344 C 68.957031 168.859375 69.109375 167.570312 69.292969 166.28125 C 69.558594 165.609375 69.761719 165.65625 69.847656 166.34375 C 69.679688 167.730469 69.527344 169.121094 69.398438 170.519531 Z M 312.230469 94.394531 C 314.449219 97.25 316.734375 100.273438 318.980469 103.34375 L 320.21875 105.054688 L 321.304688 106.867188 L 322.757812 109.269531 C 320.972656 107.261719 319.066406 104.542969 316.222656 100.757812 C 314.710938 98.878906 313.421875 97.492188 311.960938 95.722656 C 311.828125 95.539062 311.691406 95.355469 311.558594 95.167969 C 311.382812 94.960938 311.195312 94.761719 311.019531 94.550781 C 310.398438 93.761719 309.734375 92.882812 309.003906 91.851562 C 309.050781 91.839844 309.085938 91.8125 309.171875 91.859375 C 309.59375 92.109375 309.875 92.140625 310.007812 91.984375 C 310.75 92.785156 311.5 93.605469 312.230469 94.394531 Z M 289.496094 72.542969 L 293.601562 75.683594 C 296.691406 78.269531 299.660156 80.992188 302.496094 83.847656 C 304.023438 85.582031 305.582031 87.488281 307.191406 89.554688 C 307.71875 90.238281 308.289062 90.882812 308.773438 91.589844 C 308.601562 91.542969 308.386719 91.429688 308.148438 91.285156 C 307.933594 91.042969 307.710938 90.796875 307.5 90.554688 C 302.390625 84.371094 296.273438 78.765625 289.65625 73.570312 C 289.847656 73.523438 289.800781 73.230469 289.347656 72.523438 C 288.675781 72.183594 288.117188 72.015625 288.164062 72.398438 C 285.699219 70.507812 283.171875 68.675781 280.597656 66.898438 L 278.113281 65.367188 C 278.074219 65.304688 278.058594 65.253906 278.003906 65.175781 C 277.644531 64.667969 277.230469 64.179688 276.8125 63.707031 C 281.042969 66.273438 285.136719 69.054688 289.054688 72.054688 C 289.199219 72.21875 289.359375 72.367188 289.496094 72.542969 Z M 258.125 54.222656 C 258.6875 54.605469 259.113281 54.941406 259.207031 55.105469 C 259.242188 55.167969 259.292969 55.242188 259.339844 55.3125 C 257.011719 54.300781 254.59375 53.472656 252.203125 52.570312 C 248.867188 51.339844 245.546875 50.015625 242.042969 49.253906 C 240.222656 48.710938 238.382812 48.222656 236.523438 47.761719 C 236.652344 47.574219 237.136719 47.503906 237.925781 47.570312 C 244.824219 49.257812 251.578125 51.496094 258.125 54.222656 Z M 96.761719 268.582031 C 96.625 268.480469 96.523438 268.460938 96.347656 268.261719 C 96.214844 268.070312 95.964844 267.722656 95.769531 267.4375 C 95.902344 267.535156 96.007812 267.558594 96.183594 267.753906 C 96.316406 267.945312 96.5625 268.300781 96.761719 268.582031 Z M 116.171875 285.828125 L 114.667969 284.449219 C 112.539062 282.507812 110.414062 280.566406 108.296875 278.632812 C 108.207031 278.539062 108.121094 278.441406 108.027344 278.351562 C 108.25 278.488281 108.453125 278.609375 108.699219 278.761719 C 111.195312 281.253906 113.777344 283.65625 116.460938 285.949219 C 116.371094 285.914062 116.269531 285.871094 116.171875 285.828125 Z M 338.144531 144.402344 C 338.855469 147.367188 339.679688 150.777344 339.617188 151.195312 C 339.539062 151.765625 338.332031 147.109375 337.484375 144.121094 C 337.167969 143.007812 337.140625 143.03125 337.28125 143.605469 C 338.089844 146.730469 338.875 149.769531 339.648438 152.75 L 340.214844 154.972656 L 340.5625 157.222656 C 340.792969 158.714844 341.023438 160.195312 341.25 161.671875 C 341.691406 162.882812 341.910156 163.492188 342.226562 165.042969 C 342.363281 165.820312 342.546875 166.828125 342.804688 168.261719 C 342.863281 168.796875 342.910156 169.414062 342.953125 170.074219 C 342.625 169.738281 342.285156 169.515625 341.9375 169.503906 C 341.410156 169.480469 340.90625 170.441406 340.429688 173.175781 C 340.351562 173.605469 340.28125 174.050781 340.203125 174.488281 C 338.148438 140.425781 323.476562 109.792969 300.832031 87.089844 C 302.101562 88.023438 303.457031 89.09375 304.964844 90.390625 C 305.949219 91.453125 306.964844 92.558594 308.046875 93.753906 C 309.15625 94.945312 310.605469 96.566406 310.15625 95.882812 C 311.875 97.988281 313.757812 100.40625 315.882812 103.351562 C 317.597656 106.25 319.074219 108.257812 319.636719 108.324219 C 319.742188 108.335938 319.871094 108.398438 320.011719 108.492188 C 320.285156 108.898438 320.542969 109.273438 320.765625 109.5625 C 321.476562 110.519531 322.351562 111.832031 323.382812 113.453125 C 324.378906 115.09375 325.707031 116.9375 326.734375 119.285156 C 327.859375 121.585938 328.980469 123.875 330.097656 126.160156 C 330.640625 127.308594 331.257812 128.429688 331.742188 129.601562 L 333.082031 133.164062 C 333.617188 134.589844 333.90625 135.214844 333.929688 135.085938 C 333.953125 134.960938 333.65625 134.03125 333.203125 132.726562 C 333.0625 132.328125 332.898438 131.859375 332.753906 131.464844 L 331.949219 129.304688 C 331.65625 128.597656 331.289062 127.921875 330.964844 127.234375 C 330.296875 125.859375 329.636719 124.488281 328.976562 123.125 C 328.316406 121.761719 327.660156 120.398438 327.007812 119.042969 L 326.027344 117.011719 L 324.867188 115.085938 C 324.207031 113.984375 323.554688 112.894531 322.898438 111.800781 C 323.175781 112.179688 323.460938 112.570312 323.761719 112.984375 C 325.070312 114.597656 325.71875 116.066406 326.84375 117.8125 C 327.664062 119.332031 328.675781 121.21875 329.613281 122.96875 C 331.53125 126.101562 332.945312 132.089844 334.144531 134.042969 C 334.292969 134.289062 334.429688 134.503906 334.5625 134.695312 L 334.804688 135.304688 C 334.753906 135.140625 334.710938 134.992188 334.667969 134.835938 C 334.949219 135.226562 335.207031 135.519531 335.453125 135.761719 C 335.5 135.890625 335.539062 136.019531 335.585938 136.144531 C 336.523438 138.890625 337.589844 141.582031 338.144531 144.402344 Z M 124.058594 330.699219 C 123.519531 330.699219 121.242188 329.617188 119.375 328.472656 C 117.378906 327.242188 116.230469 326.3125 116.65625 326.28125 C 117.070312 326.246094 119.371094 327.359375 121.425781 328.582031 C 123.460938 329.789062 124.597656 330.695312 124.058594 330.699219 Z M 57.453125 125.1875 C 57.199219 125.890625 56.675781 127.089844 56.335938 127.761719 C 55.988281 128.433594 55.574219 129.046875 55.421875 129.132812 C 55.039062 129.359375 55.285156 128.28125 55.875 126.609375 C 56.125 125.90625 56.636719 124.683594 56.964844 124.042969 C 57.296875 123.398438 57.550781 123.1875 57.832031 122.792969 C 58.082031 122.855469 58.097656 123.402344 57.453125 125.1875 Z M 56.636719 215.382812 C 56.414062 215.507812 55.894531 214.058594 55.515625 212.222656 C 55.148438 210.441406 54.832031 207.945312 54.921875 207.304688 C 55.023438 206.605469 55.191406 206.195312 55.285156 205.832031 C 55.566406 206.230469 55.71875 206.402344 55.890625 206.695312 C 56.203125 207.226562 56.796875 210.082031 56.914062 211.550781 C 57.113281 214.027344 56.992188 215.1875 56.636719 215.382812 Z M 52.765625 145.582031 C 52.625 146.570312 52.429688 147.925781 52.273438 149.027344 C 52.105469 149.59375 51.953125 150.113281 51.894531 150.320312 C 51.804688 150.527344 51.703125 150.613281 51.703125 150.425781 C 51.78125 148.210938 51.511719 146.101562 52.617188 142.230469 C 52.796875 141.503906 53.210938 140.222656 53.476562 139.5625 C 53.703125 139.011719 54.082031 138.523438 54.027344 138.824219 C 53.628906 140.953125 53.207031 143.222656 52.765625 145.582031 Z M 52.910156 200.097656 C 52.867188 200.53125 52.679688 200.601562 52.589844 200.148438 C 51.730469 195.183594 50.378906 189.921875 50.050781 185.457031 C 49.984375 184.902344 49.984375 183.71875 49.960938 182.796875 C 49.917969 181.132812 50.183594 178.332031 50.390625 178.1875 C 50.503906 178.351562 50.660156 178.199219 50.722656 178.742188 C 51.296875 184.160156 51.617188 190.457031 52.84375 197.625 C 52.925781 198.214844 52.953125 199.648438 52.910156 200.097656 Z M 350.09375 200.738281 L 348.988281 192.265625 C 348.578125 189.433594 348.386719 186.097656 347.75 183.949219 C 347.257812 182.445312 346.796875 180.789062 346.335938 178.914062 C 345.3125 174.742188 344.242188 171.492188 343.054688 170.164062 C 342.738281 165.773438 341.976562 161.707031 341.5 157.726562 C 341.214844 155.652344 341.265625 155.367188 341.585938 157 C 341.886719 158.640625 342.265625 160.695312 342.660156 162.847656 C 342.433594 161.136719 342.203125 159.414062 341.976562 157.734375 C 341.75 156.054688 341.574219 154.40625 341.160156 152.894531 C 340.078125 148.335938 339.148438 144.277344 337.882812 140.65625 C 337.371094 139.445312 336.808594 138.019531 336.214844 136.484375 C 336.375 136.636719 336.539062 136.804688 336.710938 137.003906 C 337.460938 137.917969 338.316406 138.851562 339.074219 140.097656 C 339.433594 140.71875 339.902344 142.070312 340.390625 144.183594 L 341.71875 150.117188 C 342.933594 154.988281 343.207031 158.59375 344.054688 161.277344 C 344.472656 162.976562 345.003906 165.152344 345.464844 167.035156 C 345.871094 168.667969 346.207031 169.132812 346.535156 169.179688 C 347.25 169.289062 347.476562 166.542969 347.199219 160.894531 L 347.242188 161.109375 C 346.859375 158.855469 346.5 156.441406 346.292969 153.65625 C 344.878906 146.089844 343.714844 138.984375 341.078125 132.421875 C 339.847656 129.136719 338.894531 125.78125 337.433594 122.621094 C 335.953125 119.472656 334.476562 116.324219 332.980469 113.136719 C 330.527344 107.894531 327.261719 103.140625 324.472656 98.289062 C 321.183594 93.746094 317.9375 89.296875 314.539062 85.207031 C 309.792969 80.089844 304.984375 74.425781 299.039062 68.929688 C 294.546875 64.113281 289.539062 60.792969 285.992188 58.507812 C 285.226562 57.992188 283.941406 57.121094 282.90625 56.417969 C 281.234375 55.476562 279.515625 54.203125 277.671875 52.546875 C 276.289062 51.304688 274.296875 49.910156 273.707031 49.804688 C 271.878906 49.308594 267.25 47.300781 262.382812 45.0625 L 261.214844 44.546875 C 259.175781 43.601562 257.023438 42.460938 254.476562 41.394531 C 253.261719 40.839844 251.351562 40.082031 250.554688 39.863281 C 244.71875 37.9375 236.738281 36.277344 230.539062 35.105469 C 227.710938 34.757812 224.5 34.363281 221.140625 33.953125 C 217.792969 33.492188 214.316406 32.960938 210.859375 32.980469 C 209.191406 32.921875 206.296875 32.40625 206.253906 32.15625 C 206.027344 31.03125 208.433594 29.699219 218.824219 30.964844 L 222.960938 31.589844 C 227.699219 32.273438 231.085938 32.53125 233.253906 32.734375 C 235.136719 32.800781 236.648438 32.726562 240.375 33.519531 C 245.523438 34.375 250.054688 36.105469 255.171875 37.632812 C 259.738281 38.980469 262.21875 39.855469 264.695312 40.488281 C 265.640625 40.742188 265.144531 40.179688 263.878906 39.253906 C 262.050781 37.851562 259.652344 36.316406 256.402344 35.082031 C 247.527344 31.148438 238.070312 28.074219 228.972656 26.164062 C 218.046875 24.054688 206.734375 22.816406 195.488281 23.085938 C 185.765625 23.046875 175.882812 24.347656 167.597656 26.046875 C 165.089844 26.683594 162.101562 27.445312 159.257812 28.171875 C 154.949219 29.082031 150.734375 30.476562 146.5625 32.054688 C 144.066406 32.941406 142.894531 33.0625 141.441406 33.292969 C 140.339844 33.464844 138.160156 34.140625 137.503906 34.636719 C 137 34.953125 136.035156 35.453125 136 35.582031 C 135.699219 36.613281 131.558594 38.769531 126.1875 41.402344 C 121.765625 43.914062 118.148438 46.484375 114.398438 48.925781 C 111.761719 50.613281 109.378906 52.621094 105.84375 54.640625 C 102.8125 56.492188 100.53125 58.101562 99.054688 59.785156 C 98.078125 60.789062 97.570312 61.503906 97.089844 62.179688 C 96.4375 63.089844 95.417969 64.265625 93.289062 66.042969 C 87.488281 70.804688 84.5 75.097656 82.605469 77.824219 C 81.996094 78.757812 80.523438 80.476562 79.507812 82.117188 C 76.355469 86.964844 72.945312 91.367188 70.148438 96.816406 C 68.742188 99.265625 67.257812 101.835938 65.753906 104.457031 C 64.472656 107.191406 63.171875 109.972656 61.886719 112.722656 C 61.722656 113.070312 60.796875 114.5 60.53125 114.800781 C 59.628906 115.804688 59.582031 115.242188 59.859375 114.164062 C 60.53125 111.578125 61.835938 108.03125 63.433594 104.066406 C 64.203125 102.316406 65.613281 100.328125 67.246094 97.996094 C 71.554688 91.984375 71.503906 91.9375 71.390625 90.609375 C 71.375 90.4375 71.34375 90.265625 71.632812 89.777344 C 71.90625 89.3125 72.550781 88.40625 73.097656 87.757812 L 76.191406 84.292969 C 78.1875 82.019531 79.640625 79.90625 79.003906 80.191406 C 78.496094 80.414062 77.824219 80.847656 77.203125 81.210938 C 76.378906 81.699219 76.109375 81.523438 77.210938 79.851562 C 79.890625 75.867188 83.230469 72.207031 86.359375 68.226562 C 86.71875 67.828125 87.828125 66.667969 88.578125 66.15625 C 89.363281 65.636719 89.878906 65.292969 90.628906 64.796875 C 91.324219 64.3125 92.324219 63.613281 92.847656 63.152344 C 93.414062 62.652344 93.863281 62.101562 93.882812 61.949219 C 93.9375 61.429688 93.75 61.101562 93.730469 60.644531 C 93.703125 60.144531 94.917969 58.738281 97.519531 56.527344 C 100.992188 53.765625 103.925781 51.804688 105.832031 49.941406 C 106.863281 48.988281 108.984375 47.34375 110.871094 46.011719 C 113.667969 44.300781 116.710938 42.441406 119.484375 40.742188 C 125.113281 37.277344 125.632812 36.460938 120.894531 38.085938 C 119.535156 38.613281 118.023438 39.195312 116.53125 39.773438 C 113.785156 40.953125 110.3125 42.332031 106.902344 44.617188 C 105.039062 45.871094 103.121094 47.167969 101.355469 48.359375 C 94.996094 52.492188 89.390625 57.824219 83.671875 62.75 C 78.464844 68.226562 73.117188 73.414062 69.136719 79.203125 C 67.210938 81.957031 64.390625 84.890625 62.503906 88.101562 C 59.835938 92.40625 56.84375 96.546875 54.589844 100.949219 C 52.394531 105.378906 50.15625 109.632812 48.441406 113.773438 C 46.464844 119.617188 43.789062 125.386719 42.394531 131.578125 C 40.941406 137.238281 39.257812 142.84375 38.625 148.519531 C 37.71875 154.136719 36.945312 159.597656 37.007812 164.800781 C 36.851562 169.914062 36.632812 175.121094 37.183594 180.40625 C 37.535156 185.683594 37.753906 191.03125 38.824219 196.351562 C 39.5 200.097656 39.878906 204.015625 40.8125 207.914062 C 41.78125 211.804688 42.773438 215.773438 43.777344 219.78125 C 44.453125 222.703125 45.5 225.011719 46.304688 226.859375 C 47.367188 229.070312 48.597656 231.992188 49.820312 235.011719 C 53.207031 241.636719 56.296875 248.617188 60.667969 254.839844 C 61.570312 256.234375 62.554688 257.792969 63.535156 259.519531 C 66.550781 264.777344 69.386719 267.570312 71.59375 270.09375 C 73.136719 271.824219 75.320312 274.445312 77.300781 276.136719 C 79.46875 278.121094 82.347656 281.929688 84.855469 284.527344 C 86.226562 285.746094 87.609375 286.976562 88.824219 288.050781 C 94.515625 293.253906 100.933594 297.570312 106.167969 300.773438 C 109.695312 302.890625 114.132812 305.027344 118.277344 307.332031 C 119.414062 308.003906 121.195312 309.070312 122.824219 309.808594 C 126.398438 310.703125 131.007812 312.765625 135.972656 314.242188 C 139.878906 315.355469 143.882812 316.488281 147.898438 317.632812 C 151.972656 318.378906 156.0625 319.121094 160.066406 319.851562 C 166.492188 320.628906 173.375 321.242188 177.457031 320.789062 C 178.054688 320.695312 178.792969 320.605469 179.847656 320.617188 C 185.417969 320.636719 189.335938 320.535156 193.910156 319.90625 C 193.945312 319.910156 193.976562 319.914062 194.003906 319.914062 C 197.871094 320.074219 201.734375 320.417969 205.601562 320.425781 C 209.464844 320.25 213.324219 320.070312 217.179688 319.894531 C 217.535156 319.855469 217.886719 319.8125 218.242188 319.769531 C 215.117188 320.699219 211.382812 321.625 206.117188 322.511719 C 202.054688 322.972656 198.816406 323.34375 195.738281 323.691406 C 193.949219 323.910156 192.097656 324.132812 190.171875 324.367188 C 188.234375 324.371094 186.222656 324.371094 184.121094 324.371094 C 179.90625 324.3125 175.273438 324.355469 170.269531 323.390625 C 167.324219 322.941406 164.507812 322.597656 162.335938 322.441406 C 159.210938 322.136719 157.105469 321.867188 152.265625 320.597656 C 151.160156 320.296875 150.277344 320.234375 149.917969 320.292969 C 148.714844 320.511719 146.265625 320.195312 143.117188 319.140625 C 141.070312 318.515625 138.863281 317.839844 137.605469 317.640625 C 133.917969 317.253906 128.195312 314.734375 122.503906 312.222656 C 117.597656 310.300781 113.058594 307.175781 108.242188 304.628906 C 103.558594 301.863281 99.304688 298.582031 95.097656 295.886719 C 94.167969 295.285156 93.097656 294.261719 92.140625 293.457031 C 87.765625 289.605469 83.054688 286.023438 79.148438 281.625 C 77.40625 279.8125 75.75 278.199219 73.855469 276.050781 C 69.75 270.871094 66.59375 266.898438 63.355469 262.8125 C 59.457031 256.769531 55.023438 250.863281 51.902344 244.320312 C 51.152344 242.914062 50.429688 241.636719 49.792969 240.59375 C 47.578125 237.3125 45.859375 233.019531 43.9375 228.414062 C 41.855469 223.847656 40.328125 218.753906 38.9375 213.65625 C 37.070312 208.011719 36.09375 201.703125 35.0625 196.25 C 34.285156 192.726562 33.726562 189.03125 33.535156 185.21875 C 33.242188 181.410156 32.886719 177.507812 32.703125 173.578125 C 32.953125 165.734375 32.789062 157.710938 33.976562 150.242188 C 34.089844 149.414062 34.230469 148.414062 34.351562 147.515625 C 35.035156 140.265625 37.210938 133.476562 38.824219 126.144531 C 40.238281 121.875 41.011719 119.109375 41.078125 117.550781 C 41.171875 115.703125 41.269531 113.851562 41.195312 112.375 C 41.15625 111.675781 40.3125 112.808594 39.113281 115.078125 C 38.242188 116.71875 37.183594 118.8125 36.3125 120.800781 C 32.019531 131.1875 28.867188 142.035156 27.34375 152.613281 C 26.164062 157.890625 26.160156 163.695312 25.589844 169.320312 C 25.054688 173.847656 25.351562 178.308594 25.417969 182.710938 C 25.550781 187.117188 25.550781 191.46875 26.273438 195.734375 C 27.546875 207.4375 29.957031 219.371094 33.816406 230.71875 C 34.6875 233.300781 35.585938 235.972656 36.488281 238.640625 C 36.824219 239.6875 37.152344 240.882812 37.636719 241.941406 C 38.507812 244.035156 39.039062 245.832031 38.890625 246.25 C 38.589844 247.105469 38.929688 248.101562 40.882812 252.078125 C 41.546875 253.390625 42.140625 254.566406 42.808594 255.882812 C 43.546875 257.277344 44.472656 259.042969 44.675781 259.878906 C 44.882812 260.628906 44.867188 261.015625 45.183594 261.949219 C 45.351562 262.445312 46.011719 263.839844 46.46875 264.671875 C 46.941406 265.539062 47.582031 266.53125 47.882812 266.902344 C 48.398438 267.523438 48.78125 267.851562 49.078125 268.019531 C 50.746094 269.132812 53.960938 272.601562 59.539062 279.894531 C 61.558594 282.703125 63.554688 284.660156 65.8125 287.019531 C 67.042969 288.378906 68.5 289.980469 69.898438 291.527344 C 71.285156 293.128906 73.597656 296.128906 74.757812 297.5625 C 75.0625 297.984375 74.851562 298.082031 74.445312 297.71875 C 72.992188 296.492188 71.496094 294.941406 70.101562 293.265625 C 68.164062 291.046875 66.664062 289.480469 65.6875 288.746094 C 65.136719 288.328125 64.679688 288.050781 64.242188 287.789062 C 63.355469 287.183594 61.53125 285.703125 59.351562 282.539062 C 58.359375 281.175781 57.394531 279.847656 56.5 278.609375 C 54.96875 276.546875 54.835938 277.21875 56.230469 279.632812 C 57.355469 281.558594 58.59375 283.597656 59.980469 285.316406 C 61.378906 286.824219 62.59375 288.136719 63.890625 289.527344 L 70.226562 296.238281 C 72.402344 298.410156 74.804688 300.371094 77.121094 302.457031 C 77.507812 302.796875 78.535156 303.988281 79.164062 304.710938 C 79.410156 304.996094 79.570312 305.292969 79.441406 305.226562 C 78.949219 304.96875 78.546875 304.839844 77.703125 304.15625 C 74.085938 301.148438 70.023438 298.128906 66.765625 294.675781 C 65.367188 293.320312 64.152344 292.230469 63.054688 291.285156 C 62.6875 290.972656 62.625 291.199219 62.960938 291.734375 C 63.539062 292.652344 64.507812 294.109375 65.378906 295.175781 C 69.433594 300.539062 74.515625 304.757812 78.816406 308.929688 C 89.96875 318.34375 102.554688 327.597656 116.136719 334.054688 C 136.597656 344.300781 158.402344 349.945312 179.566406 351.277344 C 189.898438 352.082031 199.21875 351.386719 209.261719 350.5 C 222.84375 348.800781 235.0625 345.957031 246.671875 341.515625 C 250.203125 340.148438 253.621094 338.84375 256.9375 337.429688 C 260.148438 335.785156 263.324219 334.15625 266.542969 332.503906 C 269.789062 330.941406 272.941406 329.132812 276.078125 327.042969 C 279.238281 325.015625 282.582031 323.058594 285.957031 320.796875 C 286.71875 320.199219 287.34375 319.710938 288.015625 319.183594 C 300.347656 310.125 310.832031 298.953125 320.144531 287.308594 C 327.25 277.550781 333.539062 267.664062 338.5 256.605469 C 342.898438 247.511719 345.230469 239.140625 347.558594 230.757812 C 348.730469 224.988281 349.449219 220.300781 349.894531 216.128906 C 349.992188 212.4375 350.09375 208.527344 350.191406 204.832031 C 350.214844 203.277344 350.140625 202.046875 350.09375 200.738281 " fill-opacity="1" fill-rule="nonzero"/></g><path fill="rgb(95.289612%, 36.468506%, 42.749023%)" d="M 122.929688 309.886719 L 123.027344 309.90625 L 123.015625 309.902344 L 122.824219 309.808594 L 122.757812 309.78125 L 122.929688 309.886719 " fill-opacity="1" fill-rule="nonzero"/><path fill="rgb(95.289612%, 36.468506%, 42.749023%)" d="M 121.601562 309.910156 C 122.203125 310.335938 123.015625 310.921875 123.691406 311.289062 C 125.710938 312.398438 127.46875 313.074219 127.085938 312.640625 C 126.679688 312.179688 125.347656 311.363281 124.050781 310.574219 L 122.929688 309.886719 C 122.441406 309.808594 121.941406 309.722656 121.503906 309.644531 C 121.367188 309.632812 121.359375 309.734375 121.601562 309.910156 " fill-opacity="1" fill-rule="nonzero"/><path fill="rgb(95.289612%, 36.468506%, 42.749023%)" d="M 39.726562 254.605469 C 39.652344 254.535156 39.769531 254.972656 39.804688 255.183594 C 40.019531 255.664062 40.328125 256.332031 40.441406 256.582031 C 40.953125 257.453125 40.871094 257.023438 40.25 255.539062 C 40.09375 255.175781 39.808594 254.675781 39.726562 254.605469 " fill-opacity="1" fill-rule="nonzero"/><path fill="rgb(95.289612%, 36.468506%, 42.749023%)" d="M 86.230469 71.050781 L 86.761719 70.390625 L 85.871094 71.21875 Z M 86.230469 71.050781 " fill-opacity="1" fill-rule="nonzero"/><path fill="rgb(95.289612%, 36.468506%, 42.749023%)" d="M 317.6875 100.828125 L 317.101562 99.90625 L 317.148438 100.199219 Z M 317.6875 100.828125 " fill-opacity="1" fill-rule="nonzero"/><path fill="rgb(95.289612%, 36.468506%, 42.749023%)" d="M 203.539062 46.414062 C 203.660156 46.410156 203.78125 46.40625 203.90625 46.402344 C 203.886719 46.402344 203.867188 46.398438 203.851562 46.398438 C 203.746094 46.40625 203.644531 46.410156 203.539062 46.414062 " fill-opacity="1" fill-rule="nonzero"/><path fill="rgb(95.289612%, 36.468506%, 42.749023%)" d="M 243.035156 52.066406 C 239 51.035156 234.996094 49.773438 230.886719 48.953125 C 226.738281 48.300781 222.582031 47.648438 218.40625 46.996094 C 214.183594 46.78125 209.949219 46.5625 205.695312 46.339844 C 205.101562 46.339844 204.5 46.386719 203.90625 46.402344 C 207.519531 46.441406 211.105469 46.757812 214.621094 46.949219 C 224.082031 47.679688 233.683594 49.480469 243.035156 52.066406 " fill-opacity="1" fill-rule="nonzero"/><path fill="rgb(95.289612%, 36.468506%, 42.749023%)" d="M 203.539062 46.414062 C 200 46.511719 196.453125 46.761719 192.890625 46.925781 C 196.445312 46.753906 200.003906 46.582031 203.539062 46.414062 " fill-opacity="1" fill-rule="nonzero"/><g clip-path="url(#clip-1)"><path fill="rgb(15.689087%, 7.449341%, 7.449341%)" d="M 288.890625 132.734375 C 297.894531 152.148438 300.371094 174.328125 292.574219 194.726562 C 286.375 210.949219 274.628906 222.179688 259.175781 229.574219 C 258.351562 229.96875 257.515625 230.347656 256.675781 230.730469 C 264.484375 237.210938 272.195312 245.65625 274.671875 255.582031 C 277.316406 266.199219 275.546875 277.035156 269.183594 285.988281 C 268.210938 287.363281 267.15625 288.671875 266.039062 289.9375 C 266.894531 294.453125 267.425781 299.023438 267.6875 303.621094 C 267.816406 303.894531 267.84375 304.214844 267.738281 304.582031 C 268.21875 314.382812 267.542969 324.277344 266.390625 333.976562 C 263.78125 355.988281 255.804688 382.664062 232.054688 389.839844 C 222.636719 392.6875 211.828125 390.976562 205.167969 383.253906 C 198.167969 375.144531 199.878906 363.910156 201.996094 354.210938 C 195.621094 355.320312 189.257812 355.390625 182.832031 354.738281 C 184.453125 362.566406 186.027344 371.289062 182.503906 378.839844 C 179.421875 385.425781 172.800781 389.730469 165.691406 390.636719 C 148.449219 392.832031 131.355469 378.292969 124.5625 363.199219 C 121.105469 355.503906 119.816406 347.019531 119.199219 338.664062 C 118.558594 329.980469 118.628906 321.25 119.0625 312.527344 C 119.03125 312.335938 119.046875 312.160156 119.089844 311.996094 C 119.414062 305.5625 119.929688 299.125 120.5 292.734375 C 120.515625 292.605469 120.535156 292.480469 120.570312 292.359375 C 117.796875 289.605469 115.328125 286.542969 113.335938 283.183594 C 103.300781 266.289062 109.421875 246.058594 123.535156 233.824219 C 109.683594 227.308594 98.230469 217.027344 91.597656 202.535156 C 83.019531 183.785156 83.199219 162.414062 90.1875 143.203125 C 90.246094 143.050781 90.304688 142.898438 90.363281 142.75 C 74.097656 129.664062 72.179688 104.992188 86.570312 89.792969 C 100.382812 75.222656 125.304688 74.007812 138.613281 89.667969 C 154.4375 81.839844 171.410156 77.804688 189.371094 76.847656 C 201.367188 76.746094 213.726562 78.085938 225.480469 80.542969 C 229.519531 81.394531 233.507812 82.515625 237.382812 83.902344 C 241.980469 77.015625 248.453125 72.347656 256.804688 71.167969 C 273.238281 68.839844 290.09375 77.105469 296.960938 92.503906 C 303.046875 106.128906 300.679688 123.175781 288.890625 132.734375 Z M 288.890625 132.734375 " fill-opacity="1" fill-rule="nonzero"/></g><path fill="rgb(94.898987%, 69.799805%, 19.999695%)" d="M 222.796875 278.613281 C 202.9375 279.617188 183.046875 279.71875 163.183594 278.914062 C 163.175781 278.890625 163.167969 278.871094 163.160156 278.847656 C 165.433594 269.753906 168.75 260.988281 173.066406 252.683594 C 186.804688 252.753906 200.542969 252.828125 214.28125 252.898438 C 218.25 261.058594 221.089844 269.667969 222.796875 278.613281 Z M 222.796875 278.613281 " fill-opacity="1" fill-rule="nonzero"/><path fill="rgb(90.589905%, 39.99939%, 39.608765%)" d="M 233.226562 281.230469 C 232.253906 282.652344 231.03125 283.804688 229.628906 284.960938 C 204.828125 287.824219 179.78125 288.089844 154.953125 285.421875 C 153.527344 284.386719 152.335938 283.0625 151.414062 281.566406 C 178.660156 283.15625 205.980469 283.046875 233.226562 281.230469 Z M 193.800781 217.441406 C 196.980469 216.5 199.183594 214.308594 200.820312 211.640625 C 195.109375 208.988281 188.59375 209.5625 183.351562 213.0625 C 185.804688 216.449219 189.199219 218.808594 193.800781 217.441406 Z M 193.800781 217.441406 " fill-opacity="1" fill-rule="nonzero"/><g clip-path="url(#clip-2)"><path fill="rgb(96.859741%, 96.859741%, 96.859741%)" d="M 155.039062 165.859375 C 155.910156 167.046875 154.464844 168.578125 153.210938 168.238281 C 144.054688 165.757812 134.351562 168.332031 127.636719 175.027344 C 126.160156 176.5 123.867188 174.214844 125.347656 172.738281 C 131.785156 166.324219 140.71875 163.285156 149.59375 164.277344 C 144.589844 158.8125 138.160156 154.9375 130.921875 152.972656 C 128.910156 152.425781 129.769531 149.304688 131.785156 149.851562 C 141.222656 152.414062 149.242188 157.992188 155.039062 165.859375 Z M 199.269531 244.089844 C 199.511719 243.917969 199.835938 243.832031 200.238281 243.875 C 202.410156 244.113281 200.40625 239.785156 199.621094 238.878906 C 199.269531 238.46875 198.902344 238.070312 198.535156 237.667969 C 197.707031 238.574219 196.601562 239.1875 195.234375 239.453125 C 193.398438 239.8125 191.585938 239.367188 189.757812 239.242188 C 188.585938 239.171875 187.6875 239.195312 186.539062 239.546875 C 185.078125 239.667969 184.046875 240.472656 183.4375 241.960938 C 183.4375 241.96875 183.4375 241.96875 183.4375 241.976562 C 183.796875 242.738281 184.164062 243.492188 184.523438 244.253906 C 189.429688 243.882812 194.347656 243.832031 199.269531 244.089844 Z M 244.710938 304.929688 C 236.007812 308.53125 225.566406 310.175781 216.625 306.472656 C 209.820312 303.65625 203.605469 297.902344 203.605469 290.222656 C 196.066406 290.535156 188.523438 290.582031 180.984375 290.390625 C 181.257812 299.023438 172.511719 305.503906 164.972656 307.847656 C 154.84375 310.996094 143.28125 307.351562 134.332031 302.5 C 130.519531 300.425781 126.851562 297.960938 123.519531 295.113281 C 123.03125 300.773438 122.59375 306.460938 122.3125 312.148438 C 130.90625 332.863281 153.890625 347.179688 175.554688 350.429688 C 186.140625 352.421875 196.46875 352.671875 206.894531 349.804688 C 207.007812 349.761719 207.128906 349.726562 207.265625 349.703125 C 207.402344 349.667969 207.53125 349.644531 207.65625 349.636719 C 231.722656 346.023438 255.738281 326.960938 264.449219 304.1875 C 264.261719 300.390625 263.894531 296.609375 263.277344 292.839844 C 257.953125 298.019531 251.523438 302.117188 244.710938 304.929688 Z M 291.523438 187.496094 C 287.078125 203.78125 276.835938 216.523438 262.046875 224.488281 C 244.410156 233.996094 223.695312 239.351562 203.621094 238.710938 C 202.496094 236.863281 200.691406 235.253906 199.390625 233.824219 C 198.542969 232.886719 197.03125 233.425781 196.6875 234.535156 C 195.695312 237.726562 188.890625 235.734375 186.574219 236.125 C 184.652344 236.441406 182.8125 237.265625 181.550781 238.796875 C 181.207031 239.214844 180.941406 239.660156 180.726562 240.113281 C 175.015625 241.15625 168.613281 240.324219 162.910156 239.925781 C 156.816406 239.503906 150.890625 238.753906 144.914062 237.453125 C 126.023438 233.347656 108.199219 224.597656 97.894531 207.570312 C 76.703125 172.539062 92.640625 124.132812 124.824219 101.578125 C 144.113281 88.058594 165.953125 81.328125 189.371094 80.078125 C 199.988281 79.992188 210.34375 81.449219 220.816406 82.996094 C 230.339844 84.40625 240.03125 87.621094 248.402344 92.371094 C 263.945312 101.1875 276.632812 115.214844 284.566406 131.152344 C 293.171875 148.421875 296.667969 168.675781 291.523438 187.496094 Z M 170.316406 155.082031 C 169.035156 148.113281 164.40625 141.820312 158.125 138.535156 C 150.722656 134.660156 143.675781 135.292969 136.007812 137.988281 C 122.421875 143.617188 109.90625 152.828125 104.726562 167.117188 C 100.109375 179.84375 103.429688 195.167969 115.121094 202.902344 C 127.332031 210.992188 143.367188 205.6875 152.996094 196.117188 C 158.40625 190.738281 162.425781 184.09375 165.648438 177.226562 C 168.871094 170.359375 171.734375 162.78125 170.316406 155.082031 Z M 208.667969 198.300781 C 203.015625 202.15625 195.929688 201.035156 191.996094 195.441406 C 192.019531 195.050781 191.894531 194.722656 191.6875 194.460938 C 191.558594 192.464844 191.433594 190.464844 191.304688 188.457031 C 191.304688 188.40625 191.292969 188.359375 191.285156 188.308594 C 196.285156 187.496094 202.226562 185.105469 202.160156 179.339844 C 202.082031 172.402344 194.019531 171.769531 188.902344 172.308594 C 183.496094 172.394531 176.589844 174.429688 176.28125 180.957031 C 175.976562 187.308594 182.957031 188.796875 188.082031 188.625 C 188.234375 191.011719 188.386719 193.390625 188.535156 195.777344 C 186.394531 201.71875 180.050781 204.703125 174.027344 202.082031 C 172.136719 201.265625 170.488281 204.046875 172.394531 204.882812 C 173.699219 205.449219 175.019531 205.824219 176.332031 206.015625 C 176.34375 206.058594 176.34375 206.097656 176.359375 206.140625 C 178.921875 213.359375 183.882812 222.195312 192.953125 220.929688 C 198.234375 220.195312 201.648438 216.660156 204.050781 212.34375 C 204.476562 212.019531 204.757812 211.503906 204.769531 210.972656 C 206.085938 208.3125 207.066406 205.457031 207.894531 202.816406 C 207.9375 202.671875 207.957031 202.535156 207.964844 202.40625 C 208.761719 202.039062 209.539062 201.601562 210.300781 201.085938 C 212.015625 199.925781 210.394531 197.121094 208.667969 198.300781 Z M 274.476562 163.644531 C 269.371094 147.34375 254.316406 137.652344 238.707031 132.933594 C 225.167969 128.625 209.964844 135.710938 206.625 150.03125 C 204.964844 157.152344 207.1875 164.175781 210.46875 170.488281 C 213.976562 177.25 218.394531 183.796875 223.808594 189.175781 C 233.5625 198.871094 249.199219 204.882812 262.191406 197.820312 C 274.160156 191.320312 278.390625 176.132812 274.476562 163.644531 Z M 228.851562 164.277344 C 233.859375 158.8125 240.289062 154.9375 247.523438 152.972656 C 249.53125 152.425781 248.683594 149.304688 246.660156 149.851562 C 237.21875 152.414062 229.191406 157.992188 223.398438 165.859375 C 222.53125 167.046875 223.96875 168.578125 225.226562 168.238281 C 234.382812 165.757812 244.085938 168.332031 250.804688 175.027344 C 252.28125 176.5 254.574219 174.214844 253.09375 172.738281 C 246.65625 166.320312 237.722656 163.285156 228.851562 164.277344 Z M 228.851562 164.277344 " fill-opacity="1" fill-rule="nonzero"/></g><g clip-path="url(#clip-3)"><path fill="rgb(43.919373%, 12.939453%, 2.349854%)" d="M 208.667969 198.300781 C 203.015625 202.15625 195.929688 201.035156 191.996094 195.441406 C 192.019531 195.050781 191.894531 194.722656 191.6875 194.460938 C 191.558594 192.464844 191.433594 190.464844 191.304688 188.457031 C 191.304688 188.40625 191.292969 188.359375 191.285156 188.308594 C 196.285156 187.496094 202.226562 185.105469 202.160156 179.339844 C 202.082031 172.402344 194.019531 171.769531 188.902344 172.308594 C 183.496094 172.394531 176.589844 174.429688 176.28125 180.957031 C 175.976562 187.308594 182.957031 188.796875 188.082031 188.625 C 188.234375 191.011719 188.386719 193.390625 188.535156 195.777344 C 186.394531 201.71875 180.050781 204.703125 174.027344 202.082031 C 172.136719 201.265625 170.488281 204.046875 172.394531 204.882812 C 173.699219 205.449219 175.019531 205.824219 176.332031 206.015625 C 176.34375 206.058594 176.34375 206.097656 176.359375 206.140625 C 178.921875 213.359375 183.882812 222.195312 192.953125 220.929688 C 198.234375 220.195312 201.648438 216.660156 204.050781 212.34375 C 204.476562 212.019531 204.757812 211.503906 204.769531 210.972656 C 206.085938 208.3125 207.066406 205.457031 207.894531 202.816406 C 207.9375 202.671875 207.957031 202.535156 207.964844 202.40625 C 208.761719 202.039062 209.539062 201.601562 210.300781 201.085938 C 212.015625 199.925781 210.394531 197.121094 208.667969 198.300781 Z M 193.800781 217.441406 C 189.199219 218.808594 185.804688 216.449219 183.351562 213.0625 C 188.601562 209.5625 195.109375 208.988281 200.820312 211.640625 C 199.183594 214.308594 196.980469 216.5 193.800781 217.441406 Z M 296.96875 92.503906 C 290.097656 77.105469 273.238281 68.839844 256.8125 71.167969 C 248.460938 72.355469 241.988281 77.019531 237.390625 83.902344 C 233.511719 82.507812 229.527344 81.386719 225.484375 80.542969 C 213.734375 78.085938 201.375 76.746094 189.378906 76.847656 C 171.410156 77.8125 154.441406 81.839844 138.617188 89.667969 C 125.304688 74.007812 100.382812 75.222656 86.5625 89.8125 C 72.164062 105.011719 74.089844 129.683594 90.355469 142.769531 C 90.296875 142.921875 90.238281 143.070312 90.183594 143.222656 C 83.191406 162.4375 83.011719 183.804688 91.59375 202.558594 C 98.222656 217.054688 109.683594 227.328125 123.527344 233.84375 C 109.414062 246.082031 103.292969 266.308594 113.328125 283.207031 C 115.320312 286.5625 117.789062 289.621094 120.566406 292.382812 C 120.527344 292.496094 120.507812 292.617188 120.492188 292.753906 C 119.925781 299.148438 119.40625 305.574219 119.082031 312.019531 C 119.039062 312.175781 119.023438 312.355469 119.054688 312.550781 C 118.621094 321.265625 118.550781 330 119.191406 338.6875 C 119.808594 347.042969 121.097656 355.527344 124.554688 363.222656 C 131.347656 378.3125 148.449219 392.851562 165.683594 390.660156 C 172.792969 389.753906 179.417969 385.445312 182.496094 378.859375 C 186.027344 371.304688 184.453125 362.582031 182.824219 354.757812 C 189.242188 355.414062 195.613281 355.339844 201.988281 354.234375 C 199.871094 363.933594 198.167969 375.164062 205.160156 383.273438 C 211.8125 390.992188 222.625 392.703125 232.046875 389.863281 C 255.796875 382.683594 263.78125 356.015625 266.382812 334 C 267.535156 324.304688 268.210938 314.414062 267.730469 304.605469 C 267.835938 304.238281 267.808594 303.90625 267.679688 303.640625 C 267.421875 299.046875 266.886719 294.480469 266.03125 289.957031 C 267.148438 288.691406 268.199219 287.382812 269.175781 286.011719 C 275.542969 277.058594 277.3125 266.222656 274.664062 255.601562 C 272.1875 245.679688 264.484375 237.238281 256.667969 230.753906 C 257.5 230.371094 258.34375 229.988281 259.171875 229.59375 C 274.621094 222.195312 286.367188 210.964844 292.566406 194.75 C 300.363281 174.351562 297.894531 152.167969 288.882812 132.753906 C 300.679688 123.175781 303.046875 106.128906 296.96875 92.503906 Z M 260.824219 74.050781 C 270.332031 73.742188 279.460938 76.683594 286.445312 83.261719 C 299.074219 95.167969 301.398438 118.085938 287.445312 129.769531 C 280.289062 115.625 269.664062 103.128906 257.0625 94.128906 C 251.914062 90.445312 246.339844 87.445312 240.492188 85.089844 C 245.324219 78.171875 252.214844 74.332031 260.824219 74.050781 Z M 88.851562 92.097656 C 101.351562 78.933594 123.277344 77.652344 135.65625 91.1875 C 133.109375 92.539062 130.589844 93.984375 128.101562 95.535156 C 111.234375 106.097656 99 121.308594 91.578125 139.59375 C 77.703125 127.441406 75.867188 105.769531 88.851562 92.097656 Z M 111.445312 264.332031 C 111.746094 252.882812 117.945312 242.308594 126.792969 235.296875 C 129.707031 236.511719 132.707031 237.574219 135.785156 238.480469 C 143.640625 240.796875 151.710938 242.285156 159.867188 242.941406 C 166.40625 243.464844 173.640625 244.421875 180.265625 243.457031 C 180.335938 243.851562 180.460938 244.25 180.617188 244.621094 C 178.386719 244.875 176.164062 245.183594 173.949219 245.570312 C 173.898438 245.578125 173.847656 245.585938 173.796875 245.59375 C 173.121094 245.714844 172.761719 246.140625 172.664062 246.636719 C 167.160156 256.21875 162.996094 266.488281 160.238281 277.179688 C 154.457031 275.273438 148.644531 273.414062 143.683594 269.761719 C 142 268.523438 140.386719 271.335938 142.050781 272.558594 C 145.683594 275.226562 149.773438 276.988281 153.984375 278.480469 C 152.214844 278.386719 150.445312 278.28125 148.675781 278.171875 C 148.011719 278.128906 147.566406 278.433594 147.320312 278.863281 C 147.046875 279.199219 146.941406 279.660156 147.164062 280.222656 C 148.5 283.542969 150.558594 286.335938 153.523438 288.382812 C 153.910156 288.648438 154.292969 288.707031 154.628906 288.636719 C 162.320312 289.46875 170.023438 290.023438 177.734375 290.304688 C 178.011719 299.824219 165.902344 305.476562 157.746094 305.667969 C 145.710938 305.949219 133.554688 299.792969 124.75 291.890625 C 116.882812 284.800781 111.15625 275.183594 111.445312 264.332031 Z M 163.183594 278.914062 C 163.175781 278.890625 163.167969 278.871094 163.160156 278.847656 C 165.433594 269.753906 168.75 260.988281 173.066406 252.683594 C 186.804688 252.753906 200.542969 252.828125 214.28125 252.898438 C 218.25 261.058594 221.097656 269.667969 222.796875 278.605469 C 202.9375 279.617188 183.046875 279.71875 163.183594 278.914062 Z M 233.226562 281.230469 C 232.253906 282.652344 231.03125 283.804688 229.628906 284.960938 C 204.828125 287.824219 179.78125 288.089844 154.953125 285.421875 C 153.527344 284.386719 152.335938 283.0625 151.414062 281.566406 C 178.660156 283.15625 205.980469 283.046875 233.226562 281.230469 Z M 200.230469 243.875 C 199.828125 243.832031 199.511719 243.917969 199.261719 244.089844 C 194.347656 243.832031 189.421875 243.882812 184.507812 244.253906 C 184.148438 243.492188 183.78125 242.738281 183.421875 241.976562 C 183.421875 241.96875 183.421875 241.96875 183.421875 241.960938 C 184.035156 240.480469 185.070312 239.675781 186.523438 239.546875 C 187.679688 239.1875 188.574219 239.164062 189.746094 239.242188 C 191.570312 239.359375 193.382812 239.804688 195.21875 239.453125 C 196.585938 239.1875 197.691406 238.582031 198.519531 237.667969 C 198.886719 238.070312 199.246094 238.46875 199.605469 238.878906 C 200.398438 239.785156 202.40625 244.113281 200.230469 243.875 Z M 179.703125 377.207031 C 176.769531 383.742188 169.894531 387.488281 162.910156 387.609375 C 152.089844 387.796875 142.925781 381.484375 135.828125 373.925781 C 126.59375 364.097656 123.40625 351.902344 122.433594 338.671875 C 121.945312 332.085938 121.875 325.472656 122.054688 318.855469 C 132.570312 337.492188 153.910156 350.421875 174.699219 353.542969 C 176.429688 353.867188 178.164062 354.148438 179.890625 354.382812 C 179.703125 354.699219 179.617188 355.089844 179.710938 355.542969 C 181.140625 362.496094 182.738281 370.441406 179.703125 377.207031 Z M 175.546875 350.421875 C 153.882812 347.164062 130.902344 332.855469 122.304688 312.140625 C 122.59375 306.445312 123.023438 300.765625 123.511719 295.105469 C 126.84375 297.953125 130.511719 300.425781 134.324219 302.492188 C 143.273438 307.351562 154.839844 310.988281 164.964844 307.839844 C 172.503906 305.496094 181.242188 299.023438 180.976562 290.382812 C 188.515625 290.582031 196.058594 290.527344 203.597656 290.21875 C 203.597656 297.894531 209.8125 303.648438 216.617188 306.46875 C 225.566406 310.175781 236.003906 308.523438 244.707031 304.921875 C 251.511719 302.109375 257.949219 298.003906 263.269531 292.828125 C 263.890625 296.59375 264.253906 300.375 264.441406 304.171875 C 255.730469 326.945312 231.714844 346.007812 207.648438 349.625 C 207.527344 349.632812 207.394531 349.652344 207.257812 349.6875 C 207.121094 349.710938 206.992188 349.746094 206.886719 349.789062 C 196.464844 352.671875 186.132812 352.421875 175.546875 350.421875 Z M 264.03125 325.003906 C 263.269531 335.949219 261.703125 347.0625 258.003906 357.433594 C 254.410156 367.515625 248.726562 377.199219 239.433594 382.945312 C 231.527344 387.832031 221.078125 390.121094 212.617188 385.214844 C 200.835938 378.386719 202.9375 364.78125 205.460938 353.5 C 206.351562 353.292969 207.238281 353.066406 208.128906 352.816406 C 231.109375 349.523438 253.761719 332.589844 264.601562 311.664062 C 264.566406 316.109375 264.34375 320.558594 264.03125 325.003906 Z M 271.699219 257.054688 C 274.722656 270.035156 270.054688 282.035156 260.523438 291 C 251.8125 299.191406 239.742188 305.324219 227.609375 305.296875 C 218.839844 305.273438 206.835938 300.191406 206.855469 290.082031 C 214.683594 289.691406 222.5 289.03125 230.292969 288.117188 C 230.476562 288.09375 230.644531 288.039062 230.792969 287.972656 C 231.011719 287.914062 231.226562 287.808594 231.433594 287.644531 C 234.210938 285.398438 236.1875 283.207031 237.5625 279.855469 C 237.859375 279.128906 237.597656 278.5625 237.117188 278.230469 C 236.859375 277.941406 236.46875 277.769531 235.945312 277.804688 C 234.304688 277.921875 232.664062 278.027344 231.023438 278.136719 C 235.03125 276.699219 238.996094 275.03125 242.390625 272.550781 C 244.058594 271.335938 242.441406 268.523438 240.757812 269.753906 C 236.289062 273.011719 230.882812 274.800781 225.679688 276.570312 C 223.875 267.625 220.917969 259.003906 216.875 250.835938 C 216.820312 250.589844 216.710938 250.359375 216.546875 250.171875 C 215.96875 249.03125 215.375 247.894531 214.753906 246.765625 C 214.675781 246.332031 214.402344 245.960938 213.890625 245.789062 C 213.703125 245.699219 213.503906 245.65625 213.308594 245.65625 C 210.214844 245.125 207.117188 244.714844 204.007812 244.429688 C 204.3125 243.824219 204.519531 243.183594 204.589844 242.609375 C 204.621094 242.394531 204.632812 242.175781 204.632812 241.96875 C 221.25 242.335938 238.03125 238.640625 253.359375 232.175781 C 261.292969 238.574219 269.339844 246.9375 271.699219 257.054688 Z M 291.523438 187.496094 C 287.078125 203.78125 276.835938 216.523438 262.046875 224.488281 C 244.410156 233.996094 223.695312 239.351562 203.621094 238.710938 C 202.496094 236.863281 200.691406 235.253906 199.390625 233.824219 C 198.542969 232.886719 197.03125 233.425781 196.6875 234.535156 C 195.695312 237.726562 188.890625 235.734375 186.574219 236.125 C 184.652344 236.441406 182.8125 237.265625 181.550781 238.796875 C 181.207031 239.214844 180.941406 239.660156 180.726562 240.113281 C 175.015625 241.15625 168.613281 240.324219 162.910156 239.925781 C 156.816406 239.503906 150.890625 238.753906 144.914062 237.453125 C 126.023438 233.347656 108.199219 224.597656 97.894531 207.570312 C 76.703125 172.539062 92.640625 124.132812 124.824219 101.578125 C 144.113281 88.058594 165.953125 81.328125 189.371094 80.078125 C 199.988281 79.992188 210.34375 81.449219 220.816406 82.996094 C 230.339844 84.40625 240.03125 87.621094 248.402344 92.371094 C 263.945312 101.1875 276.632812 115.214844 284.566406 131.152344 C 293.171875 148.421875 296.667969 168.675781 291.523438 187.496094 Z M 238.714844 132.933594 C 225.175781 128.625 209.972656 135.710938 206.632812 150.03125 C 204.972656 157.152344 207.195312 164.175781 210.476562 170.488281 C 213.984375 177.25 218.402344 183.796875 223.816406 189.175781 C 233.570312 198.871094 249.207031 204.882812 262.199219 197.820312 C 274.167969 191.320312 278.398438 176.132812 274.484375 163.644531 C 269.371094 147.34375 254.316406 137.652344 238.714844 132.933594 Z M 265.953125 190.859375 C 256.59375 200.820312 241.28125 198.582031 231.117188 191.203125 C 225.933594 187.445312 221.722656 182.417969 218.191406 177.125 C 214.726562 171.933594 211.25 166.234375 209.855469 160.09375 C 206.078125 143.4375 222.414062 131.152344 237.851562 136.0625 C 249.847656 139.691406 261.492188 146.128906 268.0625 157.203125 C 274.28125 167.679688 274.679688 181.570312 265.953125 190.859375 Z M 158.132812 138.535156 C 150.730469 134.660156 143.683594 135.292969 136.015625 137.988281 C 122.425781 143.617188 109.910156 152.828125 104.734375 167.117188 C 100.117188 179.84375 103.4375 195.167969 115.125 202.902344 C 127.339844 210.992188 143.371094 205.6875 153.003906 196.117188 C 158.414062 190.738281 162.433594 184.09375 165.65625 177.226562 C 168.878906 170.359375 171.742188 162.78125 170.324219 155.082031 C 169.035156 148.113281 164.40625 141.820312 158.132812 138.535156 Z M 163.355469 174.523438 C 160.816406 180.117188 157.792969 185.609375 153.875 190.363281 C 145.875 200.042969 131.9375 207.511719 119.472656 201.644531 C 108.234375 196.351562 103.921875 182.828125 106.820312 171.34375 C 110.566406 156.519531 123.347656 146.71875 136.878906 141.117188 C 142.96875 138.972656 148.53125 137.953125 154.664062 140.511719 C 160.3125 142.863281 164.734375 147.523438 166.570312 153.398438 C 168.800781 160.574219 166.332031 167.949219 163.355469 174.523438 Z M 163.355469 174.523438 " fill-opacity="1" fill-rule="nonzero"/></g><g clip-path="url(#clip-4)"><path fill="rgb(96.859741%, 71.369934%, 4.708862%)" d="M 246.570312 258.839844 C 246.5 259.066406 246.453125 259.28125 246.089844 259.289062 C 244.980469 259.300781 244.585938 259.726562 244.644531 260.839844 C 244.707031 262.078125 244.714844 263.351562 245.226562 264.492188 C 246.285156 266.863281 245.996094 269.230469 245.402344 271.621094 C 245.300781 272.03125 245.214844 272.441406 245.121094 272.851562 C 244.832031 274.113281 244.355469 274.480469 243.054688 274.457031 C 242.199219 274.4375 241.691406 275.191406 242.035156 275.980469 C 242.164062 276.285156 242.390625 276.511719 242.644531 276.71875 C 244.054688 277.875 245.019531 279.277344 245.441406 281.109375 C 246.128906 284.066406 244.683594 287.070312 241.933594 288.082031 C 241.273438 288.324219 240.601562 288.507812 239.925781 288.117188 C 239.640625 287.953125 239.46875 288.152344 239.269531 288.292969 C 238.539062 288.8125 237.820312 289.324219 236.90625 289.492188 C 236.335938 289.59375 235.8125 289.914062 235.417969 290.308594 C 234.308594 291.421875 232.863281 291.765625 231.4375 292.148438 C 227.199219 293.296875 222.910156 294.253906 218.601562 295.117188 C 215.941406 295.652344 213.28125 296.21875 210.597656 296.613281 C 207.277344 297.097656 203.953125 297.582031 200.601562 297.882812 C 197.023438 298.207031 193.429688 298.339844 189.871094 298.734375 C 187.464844 299.003906 185.082031 298.859375 182.699219 299.050781 C 180.800781 299.207031 178.976562 298.691406 177.109375 298.582031 C 175.042969 298.457031 172.988281 298.144531 170.953125 297.707031 C 165.230469 296.480469 159.789062 294.492188 154.617188 291.761719 C 152.464844 290.625 150.394531 289.363281 148.472656 287.863281 C 146.863281 286.605469 145.425781 285.238281 144.933594 283.148438 C 144.894531 282.984375 144.8125 282.820312 144.714844 282.683594 C 143.003906 280.332031 144.082031 277.554688 146.128906 276.050781 C 146.347656 275.890625 146.550781 275.695312 146.789062 275.574219 C 147.28125 275.316406 147.429688 274.941406 147.308594 274.410156 C 147.179688 273.832031 146.910156 273.378906 146.277344 273.296875 C 145.925781 273.25 145.769531 273.058594 145.644531 272.761719 C 145.351562 272.074219 144.992188 271.421875 144.414062 270.921875 C 144.03125 270.589844 144.121094 270.09375 144.011719 269.675781 C 143.734375 268.605469 143.335938 267.53125 143.871094 266.421875 C 143.96875 266.214844 143.828125 266.039062 143.777344 265.851562 C 143.085938 263.402344 144.835938 260.300781 147.304688 259.585938 C 148.167969 259.335938 148.425781 258.476562 147.671875 257.929688 C 146.636719 257.183594 146.335938 256.066406 145.832031 255.035156 C 145.703125 254.769531 145.644531 254.464844 145.488281 254.214844 C 144.695312 252.945312 145.054688 251.761719 145.699219 250.578125 C 146.84375 248.480469 148.539062 246.90625 150.457031 245.539062 C 154.105469 242.9375 158.183594 241.195312 162.378906 239.710938 C 169.738281 237.105469 177.339844 235.636719 185.101562 234.921875 C 189.152344 234.546875 193.207031 234.230469 196.664062 234.34375 C 203.871094 234.273438 210.421875 234.804688 216.921875 235.828125 C 223.300781 236.835938 229.578125 238.277344 235.519531 240.917969 C 239.648438 242.753906 243.160156 245.367188 245.992188 248.921875 C 247.296875 250.558594 247.5 252.386719 247.664062 254.378906 C 247.800781 256.078125 247 257.378906 246.570312 258.839844 " fill-opacity="1" fill-rule="nonzero"/></g><g clip-path="url(#clip-5)"><path fill="rgb(98.429871%, 85.488892%, 50.19989%)" d="M 245.222656 284.757812 C 241.894531 286.570312 238.316406 287.761719 234.730469 288.914062 C 231.898438 289.824219 228.941406 290.265625 226.070312 291.03125 C 220.871094 292.414062 215.6875 293.84375 210.417969 294.96875 C 203.859375 296.371094 197.265625 297.15625 190.546875 296.6875 C 188.148438 296.519531 185.742188 296.457031 183.339844 296.328125 C 182.175781 296.265625 180.996094 296.210938 179.878906 295.875 C 177.371094 295.125 174.761719 294.964844 172.210938 294.453125 C 167.246094 293.460938 162.339844 292.308594 157.699219 290.253906 C 152.671875 288.027344 148.078125 285.136719 144.304688 281.0625 C 144.25 281 144.144531 280.980469 143.898438 280.867188 C 144.367188 282.605469 144.425781 284.296875 145.652344 285.636719 C 148.527344 288.777344 151.839844 291.347656 155.550781 293.414062 C 159.285156 295.496094 163.144531 297.300781 167.390625 298.078125 C 173.625 299.222656 179.929688 299.765625 186.253906 299.921875 C 196.261719 300.167969 206.230469 299.558594 216.121094 297.9375 C 221.140625 297.117188 226.101562 296.019531 230.890625 294.273438 C 235.242188 292.6875 239.457031 290.832031 243.046875 287.8125 C 244.089844 286.933594 245.066406 285.996094 245.710938 284.734375 C 245.464844 284.570312 245.347656 284.691406 245.222656 284.757812 Z M 245.625 268.59375 C 245.449219 268.578125 245.398438 268.761719 245.320312 268.878906 C 242.875 272.390625 239.480469 274.558594 235.414062 275.683594 C 233.5625 276.195312 231.757812 276.789062 230.042969 277.636719 C 221.195312 282.003906 211.820312 284.292969 201.988281 284.761719 C 192.363281 285.222656 182.804688 284.550781 173.328125 282.808594 C 167.550781 281.746094 161.933594 280.148438 156.683594 277.445312 C 153.082031 275.589844 149.8125 273.289062 147.265625 270.078125 C 145.574219 267.945312 144.382812 265.582031 143.9375 262.804688 C 143.453125 263.09375 143.292969 263.480469 143.214844 263.851562 C 142.449219 267.425781 142.992188 270.71875 145.542969 273.476562 C 147.117188 275.175781 149 276.523438 150.996094 277.695312 C 155.480469 280.324219 160.292969 282.253906 165.054688 284.292969 C 171.085938 286.871094 177.34375 288.625 183.839844 289.511719 C 189.484375 290.285156 195.15625 290.46875 200.839844 290.136719 C 204.105469 289.945312 207.371094 289.714844 210.546875 288.8125 C 216.324219 287.171875 221.921875 285.011719 227.550781 282.941406 C 232.015625 281.296875 236.425781 279.507812 241.03125 278.265625 C 241.902344 278.03125 242.707031 277.644531 243.375 277.023438 C 245.746094 274.804688 246.042969 271.949219 245.824219 268.941406 C 245.816406 268.808594 245.820312 268.613281 245.625 268.59375 Z M 248.367188 253.078125 C 248.125 255.136719 247.628906 257.152344 246.746094 259.007812 C 246.078125 260.40625 245.105469 261.644531 243.65625 262.425781 C 241.230469 263.738281 238.605469 264.457031 235.960938 265.125 C 231.847656 266.164062 227.847656 267.539062 223.851562 268.953125 C 218.316406 270.90625 212.570312 271.835938 206.699219 271.921875 C 203.9375 271.949219 201.207031 271.546875 198.472656 271.253906 C 192.085938 270.566406 185.699219 269.875 179.316406 269.1875 C 174.511719 268.667969 169.683594 268.328125 164.972656 267.152344 C 159.105469 265.6875 153.554688 263.507812 148.527344 260.09375 C 147.84375 259.632812 147.351562 259.078125 147.054688 258.300781 C 146.503906 256.839844 145.898438 255.402344 145.316406 253.960938 C 145.222656 253.738281 145.164062 253.519531 145.433594 253.386719 C 145.6875 253.261719 145.789062 253.472656 145.894531 253.636719 C 147.464844 256.011719 149.742188 257.539062 152.191406 258.839844 C 155.738281 260.726562 159.550781 261.890625 163.453125 262.769531 C 172.75 264.871094 182.199219 265.378906 191.6875 265.457031 C 198.835938 265.515625 205.972656 265.222656 213.078125 264.402344 C 221.226562 263.460938 229.257812 261.972656 236.890625 258.832031 C 239.976562 257.566406 242.921875 256.039062 245.472656 253.851562 C 246.039062 253.367188 246.5625 252.835938 247.023438 252.25 C 247.527344 251.601562 247.636719 251.605469 248.144531 252.246094 C 248.347656 252.5 248.402344 252.769531 248.367188 253.078125 " fill-opacity="1" fill-rule="nonzero"/></g><path fill="rgb(87.449646%, 59.999084%, 7.839966%)" d="M 185.082031 278.972656 C 183.859375 278.683594 182.640625 278.355469 181.363281 278.53125 C 181.042969 278.574219 180.542969 278.449219 180.503906 278.894531 C 180.46875 279.3125 180.898438 279.539062 181.265625 279.707031 C 181.375 279.757812 181.503906 279.785156 181.625 279.785156 C 183.117188 279.796875 184.511719 280.355469 185.96875 280.570312 C 187.265625 280.761719 188.550781 280.777344 189.847656 280.148438 C 189.710938 280.074219 189.660156 280.035156 189.601562 280.015625 C 188.121094 279.554688 186.585938 279.324219 185.082031 278.972656 Z M 154.777344 282.894531 C 154.445312 282.695312 154.027344 282.660156 153.617188 282.753906 C 152.984375 282.898438 152.898438 283.097656 153.339844 283.578125 C 153.964844 284.261719 154.746094 284.75 155.527344 285.226562 C 158.265625 286.894531 161.289062 287.664062 164.441406 288 C 165.1875 288.082031 165.953125 288.089844 166.839844 287.964844 C 166.417969 287.542969 166.019531 287.390625 165.636719 287.242188 C 162.003906 285.824219 158.152344 284.960938 154.777344 282.894531 Z M 182.765625 277.347656 C 184.304688 277.300781 185.84375 277.089844 187.285156 276.289062 C 187.164062 276.234375 187.105469 276.191406 187.042969 276.179688 C 184.019531 275.597656 180.945312 275.613281 177.894531 275.347656 C 175.53125 275.144531 173.183594 274.898438 170.871094 274.34375 C 169.988281 274.128906 169.117188 273.789062 168.183594 273.859375 C 167.847656 273.882812 167.394531 273.867188 167.285156 274.238281 C 167.179688 274.609375 167.558594 274.835938 167.835938 275.039062 C 168.398438 275.460938 169.035156 275.738281 169.703125 275.933594 C 173.96875 277.199219 178.347656 277.492188 182.765625 277.347656 Z M 212.53125 278.597656 C 211.789062 277.878906 211.359375 277.015625 211.296875 275.976562 C 211.265625 275.453125 211.136719 274.964844 210.8125 274.523438 C 210.421875 273.988281 209.695312 274.011719 209.394531 274.613281 C 209.207031 274.988281 209.046875 275.378906 208.898438 275.773438 C 208.332031 277.296875 207.648438 278.792969 207.652344 280.472656 C 207.664062 280.742188 207.664062 281.015625 207.691406 281.289062 C 207.835938 282.839844 209.269531 284.203125 210.710938 284.085938 C 212.007812 283.976562 212.875 283.195312 213.46875 282.085938 C 214.058594 280.976562 213.800781 279.988281 212.976562 279.097656 C 212.824219 278.9375 212.691406 278.753906 212.53125 278.597656 Z M 236.792969 259.984375 C 235.917969 260.789062 235.113281 261.671875 234.335938 262.570312 C 233.679688 263.324219 233.570312 264.285156 233.625 265.238281 C 233.695312 266.597656 233.796875 267.960938 233.964844 269.3125 C 234.402344 272.835938 234.8125 276.363281 234.25 279.902344 C 233.902344 282.078125 233.324219 284.210938 232.601562 286.292969 C 232.316406 287.117188 231.90625 287.890625 231.226562 288.472656 C 230.863281 288.78125 230.453125 289.054688 229.941406 288.84375 C 229.453125 288.644531 229.257812 288.214844 229.21875 287.71875 C 228.980469 284.835938 227.9375 282.289062 226.097656 280.058594 C 225.660156 279.527344 225.289062 278.933594 224.890625 278.367188 C 224.324219 277.558594 224.097656 276.652344 224.230469 275.683594 C 224.589844 273.128906 224.773438 270.5625 224.886719 267.988281 C 224.964844 266.164062 224.835938 264.363281 223.960938 262.707031 C 223.15625 261.179688 221.734375 260.507812 220.042969 260.863281 C 217.792969 261.332031 216.257812 262.5625 215.625 264.863281 C 215.203125 266.386719 214.800781 267.925781 213.992188 269.316406 C 213.351562 270.414062 212.515625 271.304688 211.398438 271.910156 C 209.886719 272.726562 208.542969 272.527344 207.335938 271.304688 C 205.96875 269.925781 205.152344 268.191406 204.257812 266.507812 C 203.476562 265.042969 202.703125 263.574219 201.9375 262.101562 C 199.996094 258.355469 196.789062 257.003906 192.742188 257.300781 C 189.617188 257.527344 186.585938 258.316406 183.527344 258.949219 C 181.316406 259.402344 179.101562 259.855469 176.828125 259.808594 C 176.054688 259.792969 175.292969 259.726562 174.546875 259.492188 C 173.253906 259.09375 172.359375 258.269531 171.910156 256.984375 C 171.636719 256.210938 171.398438 255.429688 171.121094 254.660156 C 170.492188 252.914062 169.515625 252.226562 167.65625 252.191406 C 166.726562 252.171875 165.832031 252.367188 164.945312 252.617188 C 163.84375 252.929688 162.730469 253.167969 161.578125 253.132812 C 157.945312 253.03125 155.914062 249.988281 157.265625 246.617188 C 158.226562 244.222656 160.078125 242.621094 162.269531 241.410156 C 165.773438 239.464844 169.539062 238.128906 173.335938 236.890625 C 181.738281 234.148438 188.5625 233.078125 199.746094 233.074219 C 208.554688 233.117188 219.105469 235.40625 229.234375 239.660156 C 232.574219 241.0625 235.601562 242.972656 237.929688 245.859375 C 242.015625 250.929688 240.007812 257.023438 236.792969 259.984375 " fill-opacity="1" fill-rule="nonzero"/><g clip-path="url(#clip-6)"><path fill="rgb(97.24884%, 85.488892%, 17.649841%)" d="M 204.085938 238.339844 C 203.847656 238.355469 203.585938 238.339844 203.59375 237.941406 C 203.597656 237.585938 204.457031 237 205 236.988281 C 205.320312 236.980469 205.605469 237 205.582031 237.433594 C 205.558594 237.804688 204.726562 238.328125 204.085938 238.339844 Z M 199.578125 236.785156 C 199.4375 236.816406 199.285156 236.789062 199.132812 236.789062 C 198.046875 236.785156 197.371094 236.113281 197.21875 234.78125 C 197.160156 234.273438 197.054688 234.238281 196.589844 234.410156 C 194.742188 235.089844 193.074219 236.105469 191.390625 237.097656 C 191.050781 237.300781 190.535156 237.671875 190.289062 237.210938 C 190.027344 236.714844 190.632812 236.507812 191 236.28125 C 192.859375 235.125 194.765625 234.074219 196.867188 233.414062 C 197.851562 233.105469 198.191406 233.316406 198.402344 234.328125 C 198.554688 235.058594 198.742188 235.75 199.707031 235.832031 C 199.929688 235.851562 200.40625 235.972656 200.355469 236.316406 C 200.308594 236.632812 199.890625 236.714844 199.578125 236.785156 Z M 188.714844 243.570312 C 188.53125 243.773438 188.261719 243.699219 188.027344 243.601562 C 187.4375 243.355469 187 242.894531 186.609375 242.433594 C 185.710938 241.367188 184.796875 240.300781 184.164062 239.035156 C 183.75 238.207031 183.78125 238.140625 184.785156 238.144531 C 185.503906 237.910156 185.671875 238.640625 186.007812 239.03125 C 186.710938 239.84375 187.308594 240.746094 187.988281 241.578125 C 188.324219 241.992188 188.441406 242.503906 188.714844 242.941406 C 188.835938 243.128906 188.867188 243.402344 188.714844 243.570312 Z M 206.273438 237.332031 C 205.570312 235.84375 204.691406 234.476562 203.503906 233.316406 C 202.398438 232.246094 201.25 231.253906 199.863281 230.527344 C 199.277344 230.21875 198.808594 230.210938 198.292969 230.425781 C 196.125 231.332031 193.886719 232.074219 191.789062 233.132812 C 189.355469 234.363281 186.871094 235.472656 184.464844 236.757812 C 183.613281 237.214844 183.265625 237.761719 183.066406 238.554688 C 182.867188 239.320312 182.777344 240.117188 182.53125 240.863281 C 182.269531 241.667969 182.371094 242.429688 182.796875 243.070312 C 183.644531 244.347656 184.453125 245.667969 185.527344 246.777344 C 186.660156 247.945312 187.71875 249.210938 189.253906 249.917969 C 189.652344 250.097656 189.828125 250.113281 189.804688 249.59375 C 189.773438 248.902344 189.796875 248.207031 189.796875 247.511719 C 189.78125 247.511719 189.765625 247.511719 189.75 247.511719 C 189.722656 246.894531 189.691406 246.273438 189.667969 245.65625 C 189.625 244.496094 189.726562 244.363281 190.828125 244.078125 C 190.898438 244.0625 190.964844 244.023438 191.027344 243.984375 C 192.265625 243.21875 193.609375 242.667969 194.914062 242.039062 C 196.917969 241.074219 198.847656 239.957031 200.820312 238.917969 C 201.246094 238.695312 201.699219 238.5 202.207031 238.527344 C 202.347656 238.535156 202.539062 238.503906 202.5625 238.695312 C 202.578125 238.792969 202.492188 238.9375 202.410156 239.003906 C 201.761719 239.523438 201.140625 240.085938 200.445312 240.535156 C 197.859375 242.214844 195.164062 243.6875 192.285156 244.808594 C 191.703125 245.035156 191.019531 245.203125 191.316406 246.097656 C 191.34375 246.179688 191.277344 246.289062 191.269531 246.386719 C 191.1875 247.558594 191.101562 248.730469 191.019531 249.902344 C 190.988281 250.355469 191.207031 250.394531 191.570312 250.246094 C 192.238281 249.976562 192.929688 249.769531 193.578125 249.464844 C 198.101562 247.378906 202.207031 244.601562 206.226562 241.691406 C 206.453125 241.527344 206.652344 241.324219 206.679688 241.042969 C 206.820312 239.777344 206.832031 238.519531 206.273438 237.332031 " fill-opacity="1" fill-rule="nonzero"/></g></svg>