<?xml version="1.0" encoding="UTF-8"?><svg xmlns="http://www.w3.org/2000/svg" xmlns:xlink="http://www.w3.org/1999/xlink" width="375" zoomAndPan="magnify" viewBox="0 0 375 374.999991" height="374.999991" preserveAspectRatio="xMidYMid meet" version="1.0"><defs><clipPath id="clip-0"><path d="M 51 93.007812 L 314 93.007812 L 314 371.257812 L 51 371.257812 Z M 51 93.007812 " clip-rule="nonzero"/></clipPath><clipPath id="clip-1"><path d="M 65 104 L 307 104 L 307 371.257812 L 65 371.257812 Z M 65 104 " clip-rule="nonzero"/></clipPath><clipPath id="clip-2"><path d="M 51 93.007812 L 314 93.007812 L 314 371.257812 L 51 371.257812 Z M 51 93.007812 " clip-rule="nonzero"/></clipPath><clipPath id="clip-3"><path d="M 140 276 L 250.945312 276 L 250.945312 345 L 140 345 Z M 140 276 " clip-rule="nonzero"/></clipPath><clipPath id="clip-4"><path d="M 140.074219 294.886719 L 250.808594 294.886719 L 250.808594 345.675781 L 140.074219 345.675781 Z M 140.074219 294.886719 " clip-rule="nonzero"/></clipPath><clipPath id="clip-5"><path d="M 181 272.175781 L 208 272.175781 L 208 294 L 181 294 Z M 181 272.175781 " clip-rule="nonzero"/></clipPath></defs><rect x="-37.5" width="450" fill="rgb(100%, 100%, 100%)" y="-37.499999" height="449.999989" fill-opacity="1"/><rect x="-37.5" width="450" fill="rgb(100%, 100%, 100%)" y="-37.499999" height="449.999989" fill-opacity="1"/><rect x="-37.5" width="450" fill="rgb(100%, 100%, 100%)" y="-37.499999" height="449.999989" fill-opacity="1"/><path fill="rgb(0%, 76.078796%, 79.60968%)" d="M 187.328125 7.703125 C 88.125 7.703125 7.703125 88.125 7.703125 187.328125 C 7.703125 286.535156 88.125 366.953125 187.328125 366.953125 C 286.535156 366.953125 366.953125 286.535156 366.953125 187.328125 C 366.953125 88.125 286.535156 7.703125 187.328125 7.703125 Z M 187.328125 7.703125 " fill-opacity="1" fill-rule="nonzero"/><g clip-path="url(#clip-0)"><path fill="rgb(15.689087%, 7.449341%, 7.449341%)" d="M 300.226562 165.792969 C 310.78125 188.535156 313.683594 214.515625 304.542969 238.410156 C 297.277344 257.410156 283.511719 270.566406 265.402344 279.222656 C 264.433594 279.6875 263.453125 280.132812 262.46875 280.578125 C 271.625 288.167969 280.660156 298.0625 283.5625 309.6875 C 286.664062 322.125 284.589844 334.816406 277.128906 345.304688 C 275.988281 346.910156 274.75 348.445312 273.445312 349.925781 C 274.449219 355.214844 275.070312 360.570312 275.375 365.953125 C 275.527344 366.273438 275.558594 366.652344 275.433594 367.082031 C 276 378.5625 275.207031 390.152344 273.855469 401.511719 C 270.796875 427.292969 261.449219 458.539062 233.609375 466.941406 C 222.574219 470.277344 209.902344 468.273438 202.097656 459.230469 C 193.894531 449.730469 195.902344 436.574219 198.378906 425.210938 C 190.910156 426.507812 183.449219 426.59375 175.921875 425.828125 C 177.816406 435 179.664062 445.214844 175.53125 454.058594 C 171.925781 461.773438 164.160156 466.816406 155.832031 467.878906 C 135.621094 470.445312 115.582031 453.417969 107.625 435.738281 C 103.570312 426.726562 102.0625 416.789062 101.335938 407.003906 C 100.585938 396.828125 100.667969 386.605469 101.175781 376.390625 C 101.140625 376.160156 101.160156 375.960938 101.210938 375.765625 C 101.589844 368.226562 102.195312 360.691406 102.863281 353.203125 C 102.878906 353.050781 102.902344 352.90625 102.945312 352.765625 C 99.691406 349.539062 96.800781 345.953125 94.464844 342.019531 C 82.703125 322.226562 89.878906 298.535156 106.417969 284.199219 C 90.183594 276.570312 76.761719 264.527344 68.988281 247.554688 C 58.929688 225.589844 59.140625 200.5625 67.335938 178.058594 C 67.402344 177.878906 67.46875 177.703125 67.539062 177.527344 C 48.476562 162.199219 46.226562 133.300781 63.09375 115.496094 C 79.28125 98.433594 108.492188 97.011719 124.089844 115.355469 C 142.636719 106.183594 162.53125 101.457031 183.582031 100.335938 C 197.644531 100.21875 212.128906 101.785156 225.90625 104.667969 C 230.644531 105.660156 235.3125 106.972656 239.855469 108.601562 C 245.246094 100.53125 252.832031 95.066406 262.621094 93.683594 C 281.882812 90.957031 301.636719 100.640625 309.6875 118.671875 C 316.820312 134.632812 314.046875 154.601562 300.226562 165.792969 Z M 300.226562 165.792969 " fill-opacity="1" fill-rule="nonzero"/></g><path fill="rgb(94.898987%, 69.799805%, 19.999695%)" d="M 222.761719 336.660156 C 199.484375 337.839844 176.171875 337.957031 152.886719 337.015625 C 152.878906 336.992188 152.871094 336.964844 152.863281 336.941406 C 155.527344 326.285156 159.414062 316.019531 164.472656 306.292969 C 180.574219 306.375 196.675781 306.460938 212.777344 306.542969 C 217.433594 316.101562 220.761719 326.183594 222.761719 336.660156 Z M 222.761719 336.660156 " fill-opacity="1" fill-rule="nonzero"/><path fill="rgb(90.589905%, 39.99939%, 39.608765%)" d="M 234.984375 339.726562 C 233.847656 341.394531 232.414062 342.742188 230.769531 344.097656 C 201.699219 347.449219 172.347656 347.761719 143.242188 344.636719 C 141.574219 343.425781 140.175781 341.875 139.097656 340.125 C 171.03125 341.984375 203.050781 341.859375 234.984375 339.726562 Z M 188.777344 265.015625 C 192.503906 263.910156 195.082031 261.34375 197.003906 258.21875 C 190.3125 255.109375 182.671875 255.785156 176.527344 259.886719 C 179.402344 263.851562 183.382812 266.613281 188.777344 265.015625 Z M 188.777344 265.015625 " fill-opacity="1" fill-rule="nonzero"/><g clip-path="url(#clip-1)"><path fill="rgb(100%, 100%, 100%)" d="M 143.34375 204.59375 C 144.363281 205.984375 142.671875 207.777344 141.203125 207.382812 C 130.472656 204.476562 119.097656 207.492188 111.226562 215.332031 C 109.496094 217.058594 106.808594 214.382812 108.542969 212.65625 C 116.089844 205.140625 126.558594 201.578125 136.964844 202.742188 C 131.09375 196.339844 123.558594 191.800781 115.078125 189.503906 C 112.71875 188.863281 113.730469 185.207031 116.089844 185.847656 C 127.148438 188.84375 136.550781 195.382812 143.34375 204.59375 Z M 195.183594 296.226562 C 195.46875 296.023438 195.851562 295.925781 196.320312 295.972656 C 198.867188 296.253906 196.515625 291.183594 195.597656 290.121094 C 195.183594 289.640625 194.753906 289.179688 194.324219 288.707031 C 193.355469 289.765625 192.054688 290.484375 190.453125 290.796875 C 188.304688 291.214844 186.179688 290.695312 184.039062 290.550781 C 182.664062 290.464844 181.609375 290.492188 180.261719 290.90625 C 178.550781 291.046875 177.34375 291.992188 176.628906 293.734375 C 176.628906 293.742188 176.628906 293.742188 176.628906 293.75 C 177.050781 294.644531 177.480469 295.527344 177.902344 296.421875 C 183.652344 295.984375 189.417969 295.925781 195.183594 296.226562 Z M 248.449219 367.488281 C 238.246094 371.707031 226.003906 373.636719 215.527344 369.296875 C 207.550781 365.996094 200.269531 359.257812 200.269531 350.261719 C 191.433594 350.625 182.589844 350.683594 173.753906 350.457031 C 174.074219 360.570312 163.824219 368.160156 154.988281 370.90625 C 143.117188 374.59375 129.5625 370.324219 119.074219 364.640625 C 114.605469 362.214844 110.304688 359.324219 106.402344 355.992188 C 105.828125 362.617188 105.316406 369.28125 104.984375 375.941406 C 115.0625 400.207031 141.996094 416.976562 167.390625 420.78125 C 179.796875 423.113281 191.90625 423.410156 204.121094 420.050781 C 204.253906 420 204.398438 419.957031 204.558594 419.929688 C 204.71875 419.890625 204.871094 419.863281 205.015625 419.855469 C 233.222656 415.617188 261.371094 393.292969 271.582031 366.621094 C 271.363281 362.171875 270.933594 357.742188 270.207031 353.328125 C 263.96875 359.394531 256.429688 364.195312 248.449219 367.488281 Z M 303.3125 229.9375 C 298.101562 249.011719 286.097656 263.9375 268.765625 273.269531 C 248.09375 284.402344 223.8125 290.675781 200.285156 289.925781 C 198.96875 287.761719 196.851562 285.875 195.328125 284.199219 C 194.332031 283.105469 192.5625 283.738281 192.15625 285.035156 C 190.992188 288.773438 183.019531 286.441406 180.304688 286.894531 C 178.054688 287.265625 175.894531 288.234375 174.417969 290.027344 C 174.015625 290.515625 173.703125 291.039062 173.449219 291.570312 C 166.757812 292.792969 159.253906 291.8125 152.566406 291.351562 C 145.425781 290.855469 138.480469 289.976562 131.476562 288.453125 C 109.335938 283.644531 88.445312 273.394531 76.363281 253.453125 C 51.527344 212.417969 70.210938 155.722656 107.929688 129.300781 C 130.539062 113.46875 156.132812 105.585938 183.582031 104.117188 C 196.027344 104.019531 208.167969 105.726562 220.441406 107.539062 C 231.605469 109.1875 242.960938 112.953125 252.773438 118.519531 C 270.992188 128.847656 285.863281 145.277344 295.160156 163.941406 C 305.242188 184.171875 309.339844 207.894531 303.3125 229.9375 Z M 161.25 191.96875 C 159.75 183.808594 154.320312 176.441406 146.960938 172.589844 C 138.285156 168.050781 130.023438 168.792969 121.039062 171.949219 C 105.113281 178.546875 90.445312 189.332031 84.375 206.070312 C 78.960938 220.976562 82.855469 238.921875 96.554688 247.984375 C 110.871094 257.460938 129.664062 251.246094 140.949219 240.035156 C 147.289062 233.734375 152.003906 225.953125 155.78125 217.910156 C 159.558594 209.867188 162.914062 200.988281 161.25 191.96875 Z M 206.203125 242.59375 C 199.578125 247.109375 191.273438 245.796875 186.660156 239.242188 C 186.6875 238.789062 186.542969 238.402344 186.296875 238.097656 C 186.148438 235.757812 186.003906 233.414062 185.851562 231.066406 C 185.851562 231.007812 185.835938 230.949219 185.828125 230.886719 C 191.683594 229.9375 198.648438 227.140625 198.574219 220.386719 C 198.480469 212.257812 189.03125 211.519531 183.035156 212.148438 C 176.695312 212.25 168.601562 214.632812 168.238281 222.28125 C 167.886719 229.71875 176.0625 231.460938 182.074219 231.257812 C 182.25 234.054688 182.429688 236.84375 182.605469 239.640625 C 180.09375 246.597656 172.65625 250.089844 165.601562 247.023438 C 163.382812 246.066406 161.453125 249.324219 163.6875 250.300781 C 165.214844 250.96875 166.765625 251.40625 168.300781 251.632812 C 168.316406 251.683594 168.316406 251.726562 168.332031 251.773438 C 171.335938 260.230469 177.152344 270.582031 187.78125 269.101562 C 193.96875 268.242188 197.972656 264.097656 200.789062 259.042969 C 201.289062 258.664062 201.617188 258.058594 201.632812 257.433594 C 203.175781 254.320312 204.324219 250.976562 205.292969 247.882812 C 205.34375 247.714844 205.367188 247.554688 205.375 247.40625 C 206.3125 246.976562 207.222656 246.460938 208.117188 245.855469 C 210.121094 244.5 208.226562 241.214844 206.203125 242.59375 Z M 283.332031 202 C 277.347656 182.90625 259.703125 171.554688 241.410156 166.03125 C 225.542969 160.984375 207.71875 169.28125 203.808594 186.058594 C 201.859375 194.394531 204.464844 202.625 208.308594 210.019531 C 212.425781 217.933594 217.601562 225.609375 223.949219 231.90625 C 235.378906 243.261719 253.707031 250.300781 268.933594 242.03125 C 282.960938 234.417969 287.917969 216.628906 283.332031 202 Z M 229.859375 202.742188 C 235.726562 196.339844 243.261719 191.800781 251.742188 189.503906 C 254.097656 188.863281 253.101562 185.207031 250.734375 185.847656 C 239.664062 188.84375 230.253906 195.382812 223.46875 204.59375 C 222.449219 205.984375 224.132812 207.777344 225.609375 207.382812 C 236.339844 204.476562 247.714844 207.492188 255.589844 215.332031 C 257.316406 217.058594 260.007812 214.382812 258.269531 212.65625 C 250.722656 205.132812 240.253906 201.578125 229.859375 202.742188 Z M 229.859375 202.742188 " fill-opacity="1" fill-rule="nonzero"/></g><g clip-path="url(#clip-2)"><path fill="rgb(43.919373%, 12.939453%, 2.349854%)" d="M 206.203125 242.59375 C 199.578125 247.109375 191.273438 245.796875 186.660156 239.242188 C 186.6875 238.789062 186.542969 238.402344 186.296875 238.097656 C 186.148438 235.757812 186.003906 233.414062 185.851562 231.066406 C 185.851562 231.007812 185.835938 230.949219 185.828125 230.886719 C 191.683594 229.9375 198.648438 227.140625 198.574219 220.386719 C 198.480469 212.257812 189.03125 211.519531 183.035156 212.148438 C 176.695312 212.25 168.601562 214.632812 168.238281 222.28125 C 167.886719 229.71875 176.0625 231.460938 182.074219 231.257812 C 182.25 234.054688 182.429688 236.84375 182.605469 239.640625 C 180.09375 246.597656 172.65625 250.089844 165.601562 247.023438 C 163.382812 246.066406 161.453125 249.324219 163.6875 250.300781 C 165.214844 250.96875 166.765625 251.40625 168.300781 251.632812 C 168.316406 251.683594 168.316406 251.726562 168.332031 251.773438 C 171.335938 260.230469 177.152344 270.582031 187.78125 269.101562 C 193.96875 268.242188 197.972656 264.097656 200.789062 259.042969 C 201.289062 258.664062 201.617188 258.058594 201.632812 257.433594 C 203.175781 254.320312 204.324219 250.976562 205.292969 247.882812 C 205.34375 247.714844 205.367188 247.554688 205.375 247.40625 C 206.3125 246.976562 207.222656 246.460938 208.117188 245.855469 C 210.121094 244.5 208.226562 241.214844 206.203125 242.59375 Z M 188.777344 265.015625 C 183.382812 266.613281 179.402344 263.851562 176.527344 259.886719 C 182.679688 255.785156 190.3125 255.109375 197.003906 258.21875 C 195.082031 261.34375 192.503906 263.910156 188.777344 265.015625 Z M 309.695312 118.671875 C 301.644531 100.640625 281.882812 90.957031 262.628906 93.683594 C 252.839844 95.074219 245.253906 100.539062 239.867188 108.601562 C 235.320312 106.964844 230.652344 105.652344 225.914062 104.667969 C 212.136719 101.785156 197.652344 100.21875 183.59375 100.335938 C 162.53125 101.464844 142.644531 106.183594 124.097656 115.355469 C 108.492188 97.011719 79.28125 98.433594 63.085938 115.523438 C 46.210938 133.328125 48.46875 162.222656 67.53125 177.550781 C 67.460938 177.726562 67.394531 177.90625 67.328125 178.082031 C 59.132812 200.585938 58.921875 225.617188 68.980469 247.582031 C 76.753906 264.558594 90.183594 276.59375 106.410156 284.226562 C 89.871094 298.558594 82.695312 322.25 94.457031 342.042969 C 96.792969 345.976562 99.683594 349.554688 102.9375 352.789062 C 102.894531 352.925781 102.871094 353.066406 102.851562 353.226562 C 102.1875 360.714844 101.582031 368.246094 101.199219 375.789062 C 101.152344 375.976562 101.132812 376.1875 101.167969 376.414062 C 100.660156 386.621094 100.578125 396.855469 101.328125 407.027344 C 102.050781 416.816406 103.5625 426.753906 107.617188 435.765625 C 115.574219 453.441406 135.621094 470.472656 155.820312 467.902344 C 164.152344 466.84375 171.914062 461.796875 175.523438 454.082031 C 179.664062 445.230469 177.816406 435.015625 175.910156 425.851562 C 183.433594 426.617188 190.902344 426.535156 198.371094 425.238281 C 195.890625 436.597656 193.894531 449.753906 202.089844 459.253906 C 209.886719 468.289062 222.558594 470.296875 233.601562 466.96875 C 261.4375 458.5625 270.796875 427.324219 273.847656 401.539062 C 275.199219 390.183594 275.988281 378.59375 275.425781 367.109375 C 275.550781 366.679688 275.519531 366.289062 275.367188 365.980469 C 275.0625 360.597656 274.4375 355.25 273.4375 349.953125 C 274.742188 348.46875 275.972656 346.9375 277.121094 345.328125 C 284.582031 334.84375 286.65625 322.152344 283.550781 309.710938 C 280.652344 298.089844 271.625 288.199219 262.460938 280.605469 C 263.4375 280.15625 264.421875 279.710938 265.394531 279.25 C 283.5 270.582031 297.269531 257.425781 304.535156 238.433594 C 313.675781 214.542969 310.78125 188.558594 300.21875 165.820312 C 314.046875 154.601562 316.820312 134.632812 309.695312 118.671875 Z M 267.332031 97.0625 C 278.476562 96.699219 289.175781 100.144531 297.363281 107.851562 C 312.164062 121.796875 314.886719 148.636719 298.535156 162.324219 C 290.144531 145.757812 277.691406 131.121094 262.921875 120.574219 C 256.886719 116.265625 250.351562 112.75 243.5 109.988281 C 249.164062 101.886719 257.242188 97.390625 267.332031 97.0625 Z M 65.769531 118.199219 C 80.417969 102.78125 106.117188 101.28125 120.625 117.132812 C 117.640625 118.714844 114.691406 120.40625 111.773438 122.226562 C 92.003906 134.597656 77.664062 152.410156 68.960938 173.828125 C 52.699219 159.59375 50.550781 134.210938 65.769531 118.199219 Z M 92.246094 319.933594 C 92.601562 306.527344 99.867188 294.136719 110.238281 285.925781 C 113.652344 287.351562 117.167969 288.597656 120.777344 289.65625 C 129.984375 292.371094 139.441406 294.113281 149 294.878906 C 156.664062 295.496094 165.144531 296.613281 172.910156 295.484375 C 172.996094 295.949219 173.136719 296.414062 173.324219 296.851562 C 170.710938 297.144531 168.105469 297.507812 165.507812 297.960938 C 165.449219 297.96875 165.390625 297.980469 165.332031 297.988281 C 164.539062 298.128906 164.117188 298.628906 164 299.207031 C 157.550781 310.433594 152.667969 322.460938 149.441406 334.984375 C 142.664062 332.753906 135.851562 330.574219 130.035156 326.292969 C 128.058594 324.84375 126.171875 328.136719 128.121094 329.570312 C 132.375 332.695312 137.175781 334.757812 142.105469 336.511719 C 140.03125 336.402344 137.957031 336.273438 135.882812 336.148438 C 135.109375 336.097656 134.585938 336.453125 134.300781 336.957031 C 133.980469 337.351562 133.851562 337.890625 134.113281 338.546875 C 135.683594 342.4375 138.09375 345.707031 141.566406 348.105469 C 142.019531 348.417969 142.46875 348.488281 142.863281 348.402344 C 151.875 349.378906 160.90625 350.027344 169.941406 350.355469 C 170.273438 361.507812 156.074219 368.125 146.515625 368.355469 C 132.410156 368.683594 118.164062 361.472656 107.84375 352.21875 C 98.621094 343.914062 91.910156 332.644531 92.246094 319.933594 Z M 152.886719 337.015625 C 152.878906 336.988281 152.871094 336.964844 152.863281 336.941406 C 155.527344 326.285156 159.414062 316.019531 164.472656 306.292969 C 180.574219 306.375 196.675781 306.460938 212.777344 306.542969 C 217.433594 316.101562 220.769531 326.183594 222.761719 336.652344 C 199.484375 337.839844 176.171875 337.957031 152.886719 337.015625 Z M 234.984375 339.726562 C 233.847656 341.394531 232.414062 342.742188 230.769531 344.097656 C 201.699219 347.449219 172.347656 347.761719 143.242188 344.636719 C 141.574219 343.425781 140.175781 341.875 139.097656 340.125 C 171.03125 341.984375 203.050781 341.859375 234.984375 339.726562 Z M 196.3125 295.972656 C 195.839844 295.925781 195.46875 296.023438 195.175781 296.226562 C 189.417969 295.925781 183.644531 295.984375 177.882812 296.421875 C 177.464844 295.527344 177.03125 294.644531 176.613281 293.75 C 176.613281 293.742188 176.613281 293.742188 176.613281 293.734375 C 177.328125 292 178.542969 291.054688 180.246094 290.90625 C 181.601562 290.484375 182.648438 290.457031 184.023438 290.550781 C 186.164062 290.683594 188.289062 291.207031 190.4375 290.796875 C 192.039062 290.484375 193.335938 289.777344 194.308594 288.707031 C 194.738281 289.179688 195.160156 289.640625 195.582031 290.121094 C 196.507812 291.183594 198.859375 296.253906 196.3125 295.972656 Z M 172.253906 452.144531 C 168.8125 459.800781 160.753906 464.1875 152.566406 464.332031 C 139.886719 464.550781 129.148438 457.15625 120.828125 448.304688 C 110.003906 436.792969 106.269531 422.507812 105.128906 407.011719 C 104.554688 399.296875 104.472656 391.546875 104.683594 383.800781 C 117.007812 405.628906 142.019531 420.773438 166.386719 424.429688 C 168.417969 424.808594 170.449219 425.136719 172.472656 425.414062 C 172.253906 425.785156 172.152344 426.238281 172.261719 426.769531 C 173.9375 434.914062 175.8125 444.21875 172.253906 452.144531 Z M 167.378906 420.773438 C 141.988281 416.957031 115.050781 400.199219 104.976562 375.933594 C 105.316406 369.265625 105.820312 362.609375 106.394531 355.980469 C 110.296875 359.316406 114.597656 362.214844 119.066406 364.632812 C 129.554688 370.324219 143.109375 374.585938 154.980469 370.898438 C 163.8125 368.152344 174.058594 360.570312 173.746094 350.449219 C 182.582031 350.683594 191.425781 350.617188 200.257812 350.253906 C 200.257812 359.25 207.542969 365.988281 215.519531 369.289062 C 226.003906 373.636719 238.238281 371.699219 248.4375 367.476562 C 256.414062 364.183594 263.960938 359.375 270.199219 353.3125 C 270.921875 357.726562 271.351562 362.15625 271.574219 366.601562 C 261.363281 393.273438 233.214844 415.601562 205.003906 419.839844 C 204.863281 419.847656 204.710938 419.871094 204.550781 419.914062 C 204.390625 419.941406 204.238281 419.980469 204.113281 420.03125 C 191.894531 423.410156 179.789062 423.113281 167.378906 420.773438 Z M 271.09375 391 C 270.199219 403.820312 268.359375 416.839844 264.027344 428.984375 C 259.8125 440.792969 253.152344 452.136719 242.261719 458.867188 C 232.996094 464.59375 220.746094 467.273438 210.832031 461.527344 C 197.023438 453.527344 199.484375 437.59375 202.441406 424.378906 C 203.488281 424.132812 204.523438 423.871094 205.570312 423.578125 C 232.503906 419.71875 259.054688 399.886719 271.757812 375.378906 C 271.714844 380.582031 271.453125 385.796875 271.09375 391 Z M 280.078125 311.414062 C 283.621094 326.613281 278.148438 340.671875 266.976562 351.171875 C 256.769531 360.765625 242.621094 367.949219 228.398438 367.917969 C 218.125 367.890625 204.054688 361.9375 204.078125 350.09375 C 213.25 349.640625 222.414062 348.867188 231.542969 347.796875 C 231.765625 347.769531 231.957031 347.703125 232.136719 347.628906 C 232.386719 347.558594 232.640625 347.433594 232.886719 347.238281 C 236.140625 344.613281 238.457031 342.042969 240.066406 338.117188 C 240.414062 337.269531 240.109375 336.601562 239.546875 336.214844 C 239.242188 335.878906 238.785156 335.675781 238.171875 335.71875 C 236.25 335.851562 234.328125 335.980469 232.40625 336.105469 C 237.101562 334.421875 241.746094 332.46875 245.726562 329.5625 C 247.679688 328.136719 245.785156 324.84375 243.8125 326.285156 C 238.574219 330.101562 232.234375 332.199219 226.140625 334.269531 C 224.023438 323.792969 220.558594 313.695312 215.820312 304.128906 C 215.753906 303.839844 215.628906 303.570312 215.433594 303.351562 C 214.757812 302.011719 214.058594 300.683594 213.335938 299.359375 C 213.242188 298.855469 212.921875 298.417969 212.324219 298.214844 C 212.105469 298.113281 211.867188 298.0625 211.640625 298.0625 C 208.015625 297.441406 204.382812 296.960938 200.738281 296.625 C 201.09375 295.914062 201.339844 295.167969 201.421875 294.492188 C 201.457031 294.238281 201.472656 293.988281 201.472656 293.742188 C 220.949219 294.171875 240.617188 289.84375 258.582031 282.273438 C 267.878906 289.765625 277.3125 299.5625 280.078125 311.414062 Z M 303.3125 229.9375 C 298.101562 249.011719 286.097656 263.9375 268.765625 273.269531 C 248.09375 284.402344 223.8125 290.675781 200.285156 289.925781 C 198.96875 287.761719 196.851562 285.875 195.328125 284.199219 C 194.332031 283.105469 192.5625 283.738281 192.15625 285.035156 C 190.992188 288.773438 183.019531 286.441406 180.304688 286.894531 C 178.054688 287.265625 175.894531 288.234375 174.417969 290.027344 C 174.015625 290.515625 173.703125 291.039062 173.449219 291.570312 C 166.757812 292.792969 159.253906 291.8125 152.566406 291.351562 C 145.425781 290.855469 138.480469 289.976562 131.476562 288.453125 C 109.335938 283.644531 88.445312 273.394531 76.363281 253.453125 C 51.527344 212.417969 70.210938 155.722656 107.929688 129.300781 C 130.539062 113.46875 156.132812 105.585938 183.582031 104.117188 C 196.027344 104.019531 208.167969 105.726562 220.441406 107.539062 C 231.605469 109.1875 242.960938 112.953125 252.773438 118.519531 C 270.992188 128.847656 285.863281 145.277344 295.160156 163.941406 C 305.242188 184.171875 309.339844 207.894531 303.3125 229.9375 Z M 241.417969 166.03125 C 225.550781 160.984375 207.730469 169.28125 203.816406 186.058594 C 201.871094 194.394531 204.472656 202.625 208.320312 210.019531 C 212.433594 217.933594 217.609375 225.609375 223.957031 231.90625 C 235.390625 243.261719 253.71875 250.300781 268.941406 242.03125 C 282.96875 234.417969 287.925781 216.628906 283.339844 202 C 277.347656 182.90625 259.703125 171.554688 241.417969 166.03125 Z M 273.34375 233.878906 C 262.375 245.542969 244.425781 242.921875 232.515625 234.28125 C 226.4375 229.878906 221.503906 223.992188 217.363281 217.792969 C 213.300781 211.710938 209.230469 205.03125 207.59375 197.839844 C 203.167969 178.335938 222.3125 163.941406 240.40625 169.695312 C 254.46875 173.945312 268.117188 181.484375 275.8125 194.453125 C 283.105469 206.726562 283.570312 222.996094 273.34375 233.878906 Z M 146.96875 172.589844 C 138.296875 168.050781 130.035156 168.792969 121.046875 171.949219 C 105.121094 178.546875 90.453125 189.332031 84.382812 206.070312 C 78.96875 220.976562 82.863281 238.921875 96.5625 247.984375 C 110.878906 257.460938 129.671875 251.246094 140.960938 240.035156 C 147.300781 233.734375 152.011719 225.953125 155.789062 217.910156 C 159.566406 209.867188 162.921875 200.988281 161.261719 191.96875 C 159.75 183.808594 154.320312 176.441406 146.96875 172.589844 Z M 153.089844 214.742188 C 150.113281 221.296875 146.574219 227.730469 141.980469 233.296875 C 132.605469 244.632812 116.265625 253.382812 101.65625 246.511719 C 88.488281 240.3125 83.429688 224.472656 86.828125 211.019531 C 91.21875 193.65625 106.199219 182.175781 122.058594 175.613281 C 129.199219 173.105469 135.714844 171.910156 142.90625 174.90625 C 149.523438 177.660156 154.710938 183.117188 156.859375 190 C 159.472656 198.40625 156.582031 207.046875 153.089844 214.742188 Z M 153.089844 214.742188 " fill-opacity="1" fill-rule="nonzero"/></g><g clip-path="url(#clip-3)"><path fill="rgb(96.859741%, 71.369934%, 4.708862%)" d="M 248.910156 302.34375 C 248.839844 302.582031 248.789062 302.808594 248.40625 302.8125 C 247.242188 302.828125 246.828125 303.277344 246.890625 304.449219 C 246.957031 305.753906 246.964844 307.09375 247.503906 308.300781 C 248.613281 310.796875 248.308594 313.289062 247.683594 315.8125 C 247.578125 316.242188 247.488281 316.675781 247.390625 317.109375 C 247.085938 318.4375 246.585938 318.824219 245.222656 318.796875 C 244.320312 318.777344 243.792969 319.574219 244.148438 320.40625 C 244.289062 320.726562 244.527344 320.964844 244.789062 321.183594 C 246.273438 322.402344 247.28125 323.878906 247.730469 325.808594 C 248.449219 328.921875 246.929688 332.089844 244.042969 333.15625 C 243.351562 333.414062 242.644531 333.605469 241.9375 333.195312 C 241.636719 333.019531 241.457031 333.230469 241.246094 333.382812 C 240.484375 333.925781 239.726562 334.464844 238.765625 334.640625 C 238.171875 334.75 237.621094 335.085938 237.207031 335.503906 C 236.039062 336.675781 234.523438 337.039062 233.027344 337.445312 C 228.574219 338.652344 224.074219 339.660156 219.550781 340.570312 C 216.757812 341.132812 213.96875 341.730469 211.148438 342.144531 C 207.660156 342.660156 204.171875 343.167969 200.65625 343.484375 C 196.902344 343.824219 193.125 343.964844 189.390625 344.382812 C 186.867188 344.664062 184.363281 344.511719 181.863281 344.71875 C 179.871094 344.878906 177.957031 344.335938 175.996094 344.21875 C 173.828125 344.089844 171.667969 343.761719 169.53125 343.300781 C 163.523438 342.007812 157.8125 339.910156 152.378906 337.035156 C 150.121094 335.835938 147.949219 334.507812 145.929688 332.925781 C 144.246094 331.601562 142.730469 330.160156 142.21875 327.960938 C 142.175781 327.785156 142.089844 327.613281 141.984375 327.46875 C 140.191406 324.992188 141.324219 322.066406 143.472656 320.480469 C 143.703125 320.308594 143.914062 320.105469 144.164062 319.976562 C 144.679688 319.703125 144.839844 319.308594 144.710938 318.75 C 144.574219 318.140625 144.289062 317.664062 143.625 317.578125 C 143.257812 317.527344 143.09375 317.328125 142.960938 317.011719 C 142.652344 316.289062 142.277344 315.601562 141.671875 315.074219 C 141.269531 314.722656 141.363281 314.203125 141.25 313.761719 C 140.957031 312.636719 140.539062 311.5 141.101562 310.332031 C 141.207031 310.113281 141.058594 309.929688 141 309.730469 C 140.277344 307.152344 142.113281 303.878906 144.707031 303.128906 C 145.613281 302.863281 145.882812 301.957031 145.089844 301.382812 C 144.003906 300.59375 143.6875 299.421875 143.160156 298.335938 C 143.023438 298.054688 142.960938 297.730469 142.800781 297.46875 C 141.96875 296.132812 142.34375 294.882812 143.019531 293.636719 C 144.222656 291.425781 146.003906 289.765625 148.015625 288.328125 C 151.847656 285.585938 156.128906 283.75 160.53125 282.183594 C 168.257812 279.441406 176.238281 277.890625 184.382812 277.136719 C 188.636719 276.746094 192.894531 276.410156 196.523438 276.527344 C 204.089844 276.453125 210.960938 277.015625 217.785156 278.09375 C 224.484375 279.15625 231.074219 280.671875 237.3125 283.457031 C 241.644531 285.394531 245.332031 288.148438 248.304688 291.890625 C 249.675781 293.617188 249.890625 295.542969 250.058594 297.640625 C 250.207031 299.433594 249.363281 300.800781 248.910156 302.34375 " fill-opacity="1" fill-rule="nonzero"/></g><g clip-path="url(#clip-4)"><path fill="rgb(98.429871%, 85.488892%, 50.19989%)" d="M 247.496094 329.65625 C 244.003906 331.566406 240.25 332.820312 236.484375 334.035156 C 233.507812 334.992188 230.40625 335.460938 227.394531 336.265625 C 221.933594 337.722656 216.492188 339.226562 210.960938 340.414062 C 204.074219 341.890625 197.152344 342.71875 190.101562 342.226562 C 187.582031 342.050781 185.058594 341.980469 182.535156 341.84375 C 181.3125 341.78125 180.074219 341.722656 178.902344 341.371094 C 176.269531 340.578125 173.527344 340.410156 170.851562 339.871094 C 165.640625 338.824219 160.488281 337.609375 155.617188 335.445312 C 150.339844 333.097656 145.515625 330.050781 141.558594 325.757812 C 141.496094 325.691406 141.386719 325.675781 141.128906 325.554688 C 141.621094 327.382812 141.683594 329.167969 142.972656 330.582031 C 145.988281 333.890625 149.46875 336.597656 153.363281 338.777344 C 157.285156 340.96875 161.332031 342.871094 165.792969 343.691406 C 172.335938 344.898438 178.953125 345.46875 185.59375 345.632812 C 196.097656 345.890625 206.5625 345.25 216.945312 343.542969 C 222.21875 342.675781 227.421875 341.519531 232.453125 339.679688 C 237.019531 338.007812 241.445312 336.054688 245.210938 332.875 C 246.308594 331.949219 247.332031 330.957031 248.011719 329.632812 C 247.75 329.457031 247.628906 329.582031 247.496094 329.65625 Z M 247.921875 312.621094 C 247.734375 312.601562 247.683594 312.796875 247.597656 312.917969 C 245.03125 316.625 241.46875 318.90625 237.199219 320.089844 C 235.257812 320.632812 233.363281 321.257812 231.5625 322.148438 C 222.277344 326.75 212.433594 329.167969 202.113281 329.660156 C 192.003906 330.144531 181.972656 329.4375 172.023438 327.597656 C 165.957031 326.476562 160.0625 324.796875 154.554688 321.949219 C 150.769531 319.992188 147.339844 317.566406 144.664062 314.183594 C 142.890625 311.9375 141.640625 309.445312 141.171875 306.519531 C 140.660156 306.824219 140.496094 307.230469 140.410156 307.625 C 139.609375 311.390625 140.179688 314.863281 142.855469 317.765625 C 144.507812 319.558594 146.484375 320.980469 148.582031 322.214844 C 153.289062 324.980469 158.339844 327.015625 163.339844 329.164062 C 169.671875 331.878906 176.238281 333.730469 183.058594 334.664062 C 188.984375 335.480469 194.941406 335.671875 200.90625 335.320312 C 204.335938 335.117188 207.761719 334.878906 211.09375 333.925781 C 217.160156 332.195312 223.039062 329.921875 228.945312 327.738281 C 233.632812 326.007812 238.265625 324.121094 243.097656 322.8125 C 244.011719 322.566406 244.855469 322.160156 245.554688 321.503906 C 248.050781 319.164062 248.359375 316.15625 248.128906 312.988281 C 248.121094 312.847656 248.125 312.640625 247.921875 312.621094 Z M 250.796875 296.273438 C 250.546875 298.441406 250.023438 300.5625 249.09375 302.519531 C 248.394531 303.992188 247.375 305.296875 245.855469 306.121094 C 243.308594 307.503906 240.550781 308.261719 237.773438 308.964844 C 233.457031 310.058594 229.257812 311.511719 225.0625 313 C 219.25 315.058594 213.222656 316.039062 207.054688 316.128906 C 204.15625 316.15625 201.292969 315.734375 198.421875 315.421875 C 191.71875 314.699219 185.011719 313.972656 178.308594 313.246094 C 173.265625 312.699219 168.199219 312.34375 163.253906 311.101562 C 157.09375 309.558594 151.269531 307.257812 145.988281 303.664062 C 145.269531 303.175781 144.753906 302.59375 144.445312 301.773438 C 143.867188 300.238281 143.230469 298.722656 142.617188 297.199219 C 142.523438 296.964844 142.460938 296.734375 142.742188 296.597656 C 143.007812 296.464844 143.117188 296.6875 143.226562 296.859375 C 144.875 299.359375 147.265625 300.972656 149.835938 302.34375 C 153.558594 304.332031 157.5625 305.554688 161.660156 306.484375 C 171.417969 308.699219 181.339844 309.234375 191.296875 309.316406 C 198.804688 309.375 206.296875 309.066406 213.753906 308.203125 C 222.308594 307.210938 230.738281 305.644531 238.753906 302.335938 C 241.992188 301 245.082031 299.394531 247.761719 297.085938 C 248.355469 296.574219 248.902344 296.015625 249.386719 295.398438 C 249.917969 294.714844 250.03125 294.71875 250.566406 295.394531 C 250.777344 295.664062 250.835938 295.945312 250.796875 296.273438 " fill-opacity="1" fill-rule="nonzero"/></g><path fill="rgb(87.449646%, 59.999084%, 7.839966%)" d="M 184.363281 323.554688 C 183.078125 323.253906 181.800781 322.910156 180.460938 323.089844 C 180.121094 323.136719 179.597656 323.007812 179.558594 323.472656 C 179.519531 323.914062 179.972656 324.15625 180.359375 324.332031 C 180.472656 324.386719 180.609375 324.414062 180.734375 324.414062 C 182.304688 324.425781 183.765625 325.015625 185.292969 325.242188 C 186.652344 325.441406 188.003906 325.460938 189.367188 324.796875 C 189.222656 324.71875 189.167969 324.675781 189.105469 324.65625 C 187.554688 324.171875 185.941406 323.929688 184.363281 323.554688 Z M 152.550781 327.691406 C 152.203125 327.480469 151.761719 327.445312 151.332031 327.542969 C 150.667969 327.695312 150.578125 327.90625 151.039062 328.410156 C 151.695312 329.128906 152.515625 329.644531 153.335938 330.148438 C 156.210938 331.90625 159.386719 332.714844 162.695312 333.070312 C 163.480469 333.15625 164.28125 333.164062 165.214844 333.035156 C 164.769531 332.589844 164.351562 332.429688 163.949219 332.273438 C 160.136719 330.777344 156.09375 329.867188 152.550781 327.691406 Z M 181.929688 321.847656 C 183.546875 321.792969 185.160156 321.574219 186.679688 320.730469 C 186.550781 320.671875 186.488281 320.628906 186.421875 320.617188 C 183.25 320.003906 180.019531 320.019531 176.820312 319.738281 C 174.339844 319.523438 171.871094 319.265625 169.445312 318.679688 C 168.519531 318.453125 167.601562 318.097656 166.625 318.167969 C 166.269531 318.195312 165.796875 318.175781 165.683594 318.570312 C 165.570312 318.960938 165.96875 319.199219 166.257812 319.414062 C 166.847656 319.855469 167.519531 320.148438 168.21875 320.355469 C 172.695312 321.6875 177.292969 321.996094 181.929688 321.847656 Z M 213.179688 323.164062 C 212.398438 322.40625 211.949219 321.496094 211.882812 320.402344 C 211.851562 319.847656 211.714844 319.335938 211.375 318.867188 C 210.964844 318.308594 210.203125 318.328125 209.886719 318.960938 C 209.6875 319.359375 209.519531 319.769531 209.367188 320.183594 C 208.769531 321.792969 208.054688 323.371094 208.054688 325.136719 C 208.070312 325.425781 208.070312 325.710938 208.097656 325.996094 C 208.25 327.632812 209.753906 329.070312 211.265625 328.945312 C 212.628906 328.832031 213.542969 328.007812 214.160156 326.839844 C 214.78125 325.667969 214.511719 324.625 213.644531 323.691406 C 213.484375 323.519531 213.347656 323.328125 213.179688 323.164062 Z M 238.648438 303.546875 C 237.730469 304.394531 236.886719 305.328125 236.066406 306.273438 C 235.382812 307.066406 235.265625 308.082031 235.320312 309.085938 C 235.398438 310.519531 235.503906 311.953125 235.679688 313.378906 C 236.140625 317.089844 236.566406 320.808594 235.976562 324.539062 C 235.617188 326.832031 235.007812 329.078125 234.25 331.273438 C 233.949219 332.136719 233.519531 332.957031 232.804688 333.566406 C 232.425781 333.894531 231.992188 334.183594 231.457031 333.960938 C 230.941406 333.75 230.738281 333.296875 230.699219 332.773438 C 230.445312 329.738281 229.351562 327.054688 227.421875 324.703125 C 226.960938 324.140625 226.570312 323.515625 226.152344 322.917969 C 225.558594 322.066406 225.320312 321.113281 225.460938 320.09375 C 225.839844 317.398438 226.03125 314.695312 226.148438 311.980469 C 226.230469 310.058594 226.097656 308.164062 225.179688 306.417969 C 224.332031 304.808594 222.839844 304.101562 221.0625 304.472656 C 218.699219 304.96875 217.089844 306.265625 216.425781 308.6875 C 215.984375 310.292969 215.5625 311.917969 214.710938 313.382812 C 214.039062 314.539062 213.164062 315.476562 211.988281 316.117188 C 210.402344 316.976562 208.992188 316.765625 207.722656 315.480469 C 206.289062 314.027344 205.433594 312.195312 204.492188 310.421875 C 203.675781 308.878906 202.863281 307.332031 202.058594 305.78125 C 200.019531 301.832031 196.652344 300.40625 192.40625 300.71875 C 189.125 300.960938 185.941406 301.792969 182.730469 302.457031 C 180.410156 302.9375 178.085938 303.414062 175.695312 303.363281 C 174.886719 303.34375 174.085938 303.273438 173.304688 303.03125 C 171.945312 302.609375 171.003906 301.742188 170.535156 300.386719 C 170.25 299.574219 170 298.746094 169.707031 297.9375 C 169.046875 296.101562 168.023438 295.371094 166.070312 295.335938 C 165.09375 295.316406 164.152344 295.523438 163.226562 295.785156 C 162.066406 296.117188 160.898438 296.363281 159.6875 296.332031 C 155.875 296.222656 153.742188 293.015625 155.164062 289.460938 C 156.171875 286.941406 158.117188 285.253906 160.414062 283.972656 C 164.09375 281.925781 168.046875 280.519531 172.035156 279.210938 C 180.855469 276.320312 188.019531 275.195312 199.757812 275.195312 C 209.003906 275.238281 220.082031 277.652344 230.710938 282.132812 C 234.21875 283.609375 237.398438 285.621094 239.839844 288.664062 C 244.128906 294.007812 242.023438 300.429688 238.648438 303.546875 " fill-opacity="1" fill-rule="nonzero"/><g clip-path="url(#clip-5)"><path fill="rgb(97.24884%, 85.488892%, 17.649841%)" d="M 204.3125 280.738281 C 204.066406 280.757812 203.789062 280.742188 203.796875 280.320312 C 203.800781 279.945312 204.699219 279.328125 205.273438 279.316406 C 205.605469 279.308594 205.910156 279.328125 205.882812 279.785156 C 205.859375 280.175781 204.988281 280.730469 204.3125 280.738281 Z M 199.582031 279.101562 C 199.433594 279.136719 199.273438 279.105469 199.117188 279.105469 C 197.976562 279.101562 197.261719 278.394531 197.105469 276.992188 C 197.042969 276.457031 196.929688 276.417969 196.441406 276.597656 C 194.503906 277.316406 192.753906 278.386719 190.988281 279.433594 C 190.628906 279.644531 190.089844 280.035156 189.832031 279.550781 C 189.554688 279.027344 190.191406 278.8125 190.574219 278.574219 C 192.527344 277.355469 194.53125 276.246094 196.738281 275.550781 C 197.765625 275.222656 198.125 275.445312 198.347656 276.511719 C 198.503906 277.28125 198.703125 278.011719 199.714844 278.097656 C 199.953125 278.117188 200.449219 278.246094 200.394531 278.605469 C 200.347656 278.941406 199.910156 279.027344 199.582031 279.101562 Z M 188.175781 286.253906 C 187.984375 286.464844 187.703125 286.390625 187.453125 286.285156 C 186.835938 286.027344 186.375 285.539062 185.96875 285.054688 C 185.023438 283.929688 184.0625 282.808594 183.402344 281.472656 C 182.96875 280.601562 183 280.527344 184.050781 280.535156 C 184.804688 280.289062 184.984375 281.058594 185.335938 281.46875 C 186.074219 282.324219 186.699219 283.273438 187.414062 284.152344 C 187.769531 284.589844 187.890625 285.128906 188.175781 285.589844 C 188.304688 285.789062 188.335938 286.074219 188.175781 286.253906 Z M 206.609375 279.679688 C 205.871094 278.109375 204.949219 276.667969 203.699219 275.449219 C 202.542969 274.316406 201.335938 273.273438 199.878906 272.507812 C 199.265625 272.183594 198.773438 272.175781 198.234375 272.402344 C 195.957031 273.355469 193.609375 274.136719 191.402344 275.253906 C 188.851562 276.550781 186.238281 277.71875 183.714844 279.074219 C 182.820312 279.554688 182.457031 280.128906 182.246094 280.964844 C 182.039062 281.773438 181.941406 282.613281 181.6875 283.402344 C 181.414062 284.246094 181.515625 285.050781 181.964844 285.726562 C 182.855469 287.070312 183.703125 288.464844 184.828125 289.628906 C 186.019531 290.863281 187.128906 292.199219 188.742188 292.941406 C 189.160156 293.132812 189.347656 293.148438 189.320312 292.597656 C 189.289062 291.871094 189.3125 291.136719 189.3125 290.40625 C 189.296875 290.40625 189.28125 290.40625 189.265625 290.40625 C 189.234375 289.753906 189.199219 289.101562 189.175781 288.449219 C 189.132812 287.230469 189.238281 287.089844 190.398438 286.789062 C 190.46875 286.769531 190.539062 286.726562 190.605469 286.6875 C 191.90625 285.882812 193.316406 285.304688 194.683594 284.640625 C 196.789062 283.621094 198.816406 282.445312 200.882812 281.351562 C 201.332031 281.113281 201.808594 280.910156 202.339844 280.9375 C 202.488281 280.949219 202.6875 280.914062 202.714844 281.117188 C 202.730469 281.214844 202.640625 281.371094 202.554688 281.441406 C 201.875 281.988281 201.21875 282.578125 200.492188 283.054688 C 197.777344 284.824219 194.945312 286.375 191.921875 287.558594 C 191.316406 287.792969 190.597656 287.972656 190.90625 288.917969 C 190.9375 289.003906 190.867188 289.117188 190.859375 289.222656 C 190.769531 290.457031 190.683594 291.691406 190.597656 292.925781 C 190.566406 293.402344 190.792969 293.441406 191.175781 293.285156 C 191.875 293.003906 192.601562 292.78125 193.28125 292.464844 C 198.03125 290.265625 202.339844 287.339844 206.558594 284.273438 C 206.800781 284.097656 207.003906 283.886719 207.039062 283.585938 C 207.183594 282.253906 207.195312 280.929688 206.609375 279.679688 " fill-opacity="1" fill-rule="nonzero"/></g></svg>